<svg width="160" height="51" viewBox="0 0 160 51" fill="none" xmlns="http://www.w3.org/2000/svg">
<path d="M43.6595 4.52535C43.6156 4.57024 42.0868 4.82165 41.1291 4.93837C40.3207 5.04612 40.2416 5.09999 40.3295 5.59383C40.3734 5.80035 40.4437 6.27623 40.4964 6.64436C40.5579 7.01249 40.637 7.54225 40.6809 7.82059C40.7337 8.08996 40.7688 8.39524 40.7688 8.49401C40.7688 8.85316 40.8567 8.8801 41.6474 8.74542C42.5612 8.59278 43.5717 8.44013 44.1516 8.35933L44.5909 8.30545L44.5733 7.72183C44.5557 7.39859 44.5118 6.93168 44.4679 6.68925C44.4152 6.43785 44.3361 5.91707 44.2834 5.522C44.1516 4.55228 44.1252 4.48943 43.8968 4.48943C43.7913 4.48943 43.6771 4.50739 43.6595 4.52535Z" fill="white"/>
<path d="M38.1329 5.3963C37.9132 5.44119 37.4651 5.51302 37.1224 5.55792C36.7886 5.61179 36.112 5.71056 35.6288 5.79137C35.1455 5.87218 34.4953 5.97095 34.179 6.01584C33.2477 6.15052 32.5184 6.26725 31.631 6.41091C31.1741 6.48274 30.6381 6.57253 30.4448 6.59947C29.5486 6.72517 28.8808 6.83292 28.0725 6.95862C27.5892 7.03943 26.939 7.1382 26.6227 7.18309C26.1131 7.25492 25.4629 7.36267 23.8111 7.63204C23.5475 7.67693 22.9939 7.75774 22.581 7.81161C22.168 7.87447 21.5003 7.97324 21.0873 8.04507C20.6743 8.1169 20.2087 8.17077 20.0593 8.17077C19.9011 8.17077 19.7693 8.20669 19.7693 8.26056C19.7693 8.31443 20.6656 8.35035 22.2823 8.35035C25.6386 8.35035 26.9918 8.52095 28.8193 9.17641C31.3059 10.0653 33.4146 12.0676 34.3811 14.456C34.8995 15.7489 35.1016 16.8982 35.1016 18.5414C35.1016 21.0195 34.4777 22.959 33.151 24.6201C32.5887 25.3204 32.1669 25.7155 31.3059 26.335C30.682 26.775 30.5063 27.0264 30.8226 27.0264C30.9808 27.0264 31.754 27.2688 32 27.3945C32.0879 27.4394 32.1933 27.4754 32.246 27.4754C32.3427 27.4754 33.4761 28.041 34.0296 28.3643C35.5058 29.2173 37.1576 31.013 37.9044 32.5664C38.5546 33.9042 38.7304 34.4519 38.9676 35.7808C39.1257 36.6428 39.1433 39.2915 39.0027 40.0817C38.8797 40.8 38.6601 41.6709 38.5634 41.8595C38.5195 41.9493 38.4843 42.075 38.4843 42.1468C38.4843 42.2097 38.4228 42.3893 38.3525 42.5239C38.0802 43.0627 38.1505 43.0896 39.4069 42.8741C39.8462 42.7933 40.4613 42.6945 40.7952 42.6496C43.1411 42.2995 44.1955 42.1109 44.1955 42.0301C44.1955 41.9942 44.134 41.5812 44.0637 41.1143C43.9934 40.6474 43.888 39.9829 43.8352 39.6417C43.7913 39.2915 43.7034 38.7708 43.6507 38.4745C43.598 38.1782 43.5277 37.6843 43.4838 37.3701C43.3432 36.3914 43.2466 35.718 43.0972 34.7931C43.0181 34.2993 42.9127 33.6079 42.8687 33.2667C42.6667 31.8481 42.6315 31.6146 42.4909 30.7526C42.4031 30.2588 42.3064 29.5944 42.2625 29.2711C42.2185 28.9479 42.1483 28.4451 42.0955 28.1488C42.0077 27.637 41.9374 27.206 41.7265 25.7424C41.6738 25.3923 41.5859 24.7548 41.5156 24.3327C41.4453 23.9107 41.3487 23.2643 41.296 22.8961C41.2433 22.528 41.1642 21.9982 41.1203 21.7289C41.0236 21.1273 40.8039 19.6637 40.6721 18.8107C40.6194 18.4606 40.5404 17.9398 40.4876 17.6435C40.3998 17.1317 40.3383 16.7007 40.1538 15.3539C40.1098 15.0306 40.0132 14.3842 39.9341 13.9172C39.855 13.4503 39.7584 12.8039 39.7144 12.4806C39.5299 11.1338 39.4684 10.7028 39.3805 10.191C39.3278 9.89471 39.24 9.347 39.1872 8.97887C39.1345 8.61074 39.0555 8.08098 39.0115 7.81161C38.9676 7.54225 38.8622 6.89577 38.7831 6.375C38.704 5.85422 38.6073 5.40528 38.581 5.37834C38.5546 5.35141 38.3525 5.36039 38.1329 5.3963Z" fill="white"/>
<path d="M9.44536 9.84084C9.15541 9.87676 8.35585 10.0025 7.20484 10.191C6.79188 10.2629 6.15926 10.3616 5.79902 10.4155C5.43877 10.4694 4.92038 10.5502 4.65679 10.5951C4.39319 10.64 3.71664 10.7387 3.1631 10.8195C2.60956 10.9004 1.94179 11.0081 1.68699 11.062L1.21252 11.1518L1.26524 11.879C1.30917 12.6423 1.37947 13.172 1.62548 14.6356C1.70456 15.1025 1.80121 15.7489 1.84514 16.0722C1.88908 16.3954 1.96815 16.9611 2.02087 17.3292C2.0648 17.6974 2.12631 18.0565 2.15267 18.1373C2.17903 18.2181 2.24053 18.5773 2.28446 18.9454C2.46898 20.2923 2.53048 20.7143 2.67106 21.5942C2.81165 22.4292 2.89072 23.0039 3.06645 24.243C3.11038 24.5123 3.20703 25.1408 3.28611 25.6347C3.37397 26.1285 3.47062 26.793 3.51456 27.1162C3.55849 27.4394 3.65514 28.0859 3.73422 28.5528C3.86601 29.3699 3.98023 30.1241 4.08567 30.9771C4.11203 31.2016 4.19111 31.7044 4.2614 32.0995C4.33169 32.4945 4.42834 33.1231 4.48106 33.4912C4.53378 33.8593 4.61285 34.3891 4.65679 34.6585C4.7798 35.4037 4.99945 36.8673 5.0961 37.5766C5.14882 37.9178 5.2279 38.4475 5.28062 38.7438C5.37727 39.2556 5.43877 39.7046 5.62329 41.0335C5.66722 41.3567 5.76387 42.0032 5.84295 42.4701C5.92202 42.937 6.01867 43.5835 6.06261 43.9067C6.10654 44.2299 6.18562 44.7327 6.22955 45.029C6.27348 45.3254 6.36134 45.909 6.41406 46.331C6.58979 47.4982 6.7128 47.9023 6.9061 47.8933C7.00275 47.8843 7.486 47.8125 7.99561 47.7317C8.50522 47.6419 9.09391 47.5521 9.31357 47.5342C9.53323 47.5072 9.79682 47.4713 9.91104 47.4444L10.1043 47.4085V28.5977V9.78697L9.91104 9.79595C9.79682 9.80493 9.59473 9.83187 9.44536 9.84084Z" fill="white"/>
<path d="M13.4607 18.6761L13.4871 25.9579L19.2422 25.9489C25.3048 25.9489 25.7705 25.922 26.9742 25.5269C28.1867 25.1319 28.8808 24.7188 29.698 23.8838C30.559 23.0039 30.9808 22.3125 31.2971 21.262C31.8331 19.4752 31.8594 18.1283 31.3938 16.3415C31.218 15.6861 31.1389 15.4796 30.7172 14.6805C30.4536 14.1776 29.6365 13.2528 29.1269 12.8847C28.3449 12.31 27.9319 12.1035 27.0621 11.8342C25.6826 11.4121 25.5684 11.4032 19.3476 11.4032H13.4432L13.4607 18.6761Z" fill="white"/>
<path d="M52.8062 22.0431V24.9613H53.2015H53.5969V23.0847C53.5969 22.0431 53.6321 21.1812 53.6672 21.1542C53.7112 21.1273 54.5371 22.0162 55.4948 23.1206C56.4525 24.234 57.2872 25.1229 57.3311 25.1139C57.3839 25.087 57.419 24.0185 57.419 22.1239V19.1699H57.0236H56.6282L56.6019 21.0734C56.5931 22.1239 56.5492 22.9859 56.5052 22.9859C56.4701 22.9859 56.022 22.51 55.5211 21.9264C55.0203 21.3518 54.4668 20.7143 54.2911 20.5167C54.1153 20.3192 53.7814 19.9241 53.5442 19.6458C52.7886 18.7569 52.8062 18.685 52.8062 22.0431Z" fill="white"/>
<path d="M60.9423 19.3495C60.8633 19.4662 60.8018 19.6099 60.8018 19.6637C60.8018 19.7176 60.7666 19.8253 60.7139 19.9151C60.5997 20.1127 59.9231 21.6391 59.9231 21.693C59.9231 21.7109 59.7825 22.0342 59.6156 22.4113C59.4487 22.7794 59.3081 23.1026 59.3081 23.1296C59.3081 23.1475 59.1675 23.4708 59.0005 23.8479C58.8336 24.216 58.6667 24.6201 58.6403 24.7458C58.5876 24.9523 58.6052 24.9613 59.0181 24.9613H59.4487L59.642 24.5123L59.8353 24.0634H61.1796H62.5239L62.726 24.5123L62.9281 24.9613H63.3586C63.5958 24.9613 63.7891 24.9254 63.7891 24.8805C63.7891 24.8266 63.631 24.4405 63.4377 24.0185C63.2444 23.5965 63.0862 23.2104 63.0862 23.1745C63.0862 23.1386 63.0159 22.95 62.9193 22.7525C62.8314 22.5639 62.6645 22.1958 62.559 21.9533C62.4536 21.7019 62.2954 21.3428 62.2076 21.1452C62.1285 20.9477 61.9967 20.6424 61.9176 20.4718C61.285 18.9993 61.2147 18.9275 60.9423 19.3495ZM61.3377 21.1093C61.5925 21.6121 62.1285 23.0847 62.0758 23.1655C62.0055 23.2822 60.3009 23.2822 60.2306 23.1655C60.1955 23.1116 60.2043 23.0218 60.2482 22.959C60.3273 22.8602 60.8984 21.4415 61.0126 21.0734C61.0741 20.8849 61.2411 20.9028 61.3377 21.1093Z" fill="white"/>
<path d="M63.7276 19.1878C63.6573 19.2058 63.6134 19.3854 63.6134 19.5829V19.9331H64.5184C65.1071 19.9331 65.4585 19.969 65.5288 20.0408C65.6079 20.1217 65.6343 20.804 65.6343 22.5549V24.9613H66.0297H66.425V22.5549C66.425 21.235 66.4602 20.1127 66.4953 20.0498C66.5393 19.978 66.8819 19.9331 67.4794 19.9151L68.402 19.8882L68.3756 19.5739C68.358 19.4033 68.3229 19.2327 68.2965 19.1878C68.2526 19.116 63.9034 19.107 63.7276 19.1878Z" fill="white"/>
<path d="M69.4651 19.1968C69.43 19.2597 69.3861 23.7132 69.4124 24.8445C69.4124 24.9254 69.553 24.9613 69.8078 24.9613H70.2032L70.1856 22.0611L70.1593 19.1699L69.8342 19.143C69.6584 19.125 69.4915 19.1519 69.4651 19.1968Z" fill="white"/>
<path d="M73.1203 19.3584C71.8726 19.978 71.1961 21.3428 71.4684 22.6896C71.7232 23.9018 72.4964 24.6919 73.7705 25.0151C74.2801 25.1498 74.4382 25.1588 74.8951 25.06C75.1939 24.9972 75.5892 24.8715 75.7825 24.7817C76.2043 24.5842 76.9599 23.8479 77.1357 23.4708C77.1972 23.3271 77.285 23.1386 77.329 23.0577C77.3729 22.968 77.408 22.537 77.408 22.088C77.408 21.6391 77.3729 21.2081 77.329 21.1183C77.285 21.0375 77.1972 20.8489 77.1357 20.7053C76.9336 20.2653 76.257 19.6278 75.721 19.3674C75.2905 19.1609 75.1148 19.125 74.4031 19.125C73.709 19.134 73.5157 19.1699 73.1203 19.3584ZM75.519 20.1845C76.1779 20.5706 76.6963 21.6301 76.5645 22.3394C76.424 23.1116 76.0549 23.6503 75.4223 24.0275C74.8776 24.3597 73.9638 24.3597 73.4278 24.0275C72.6458 23.5606 72.3559 23.0218 72.3559 22.0431C72.3559 21.3158 72.5052 20.9297 72.9445 20.5077C73.3311 20.1306 73.5947 19.9959 74.0692 19.9331C74.6403 19.8702 75.1148 19.9511 75.519 20.1845Z" fill="white"/>
<path d="M78.6821 19.2417C78.6557 19.3046 78.6469 20.6065 78.6557 22.1329L78.6821 24.9164L79.1038 24.9433L79.5168 24.9702V23.0847C79.5168 22.0162 79.5519 21.1812 79.5958 21.1452C79.6398 21.1183 79.7364 21.1812 79.8067 21.2799C79.877 21.3787 80.0703 21.6121 80.2285 21.8007C80.3954 21.9803 81.1159 22.8063 81.8364 23.6414C82.5569 24.4674 83.1895 25.1319 83.2422 25.1139C83.3125 25.087 83.3476 24.1442 83.3652 22.1509L83.3828 19.2148L83.1719 19.1609C83.0577 19.134 82.8644 19.125 82.7589 19.143L82.5481 19.1699L82.5217 21.0734C82.5041 22.519 82.4778 22.9859 82.3899 22.9769C82.3372 22.9769 81.5376 22.106 80.6238 21.0465C79.7101 19.987 78.9105 19.125 78.8402 19.125C78.7787 19.125 78.6996 19.1789 78.6821 19.2417Z" fill="white"/>
<path d="M86.8358 19.3225C86.7392 19.529 86.6513 19.7176 85.9308 21.4146C85.7287 21.8725 85.2367 23.0398 85.0961 23.39C85.0258 23.5336 84.8589 23.9287 84.7095 24.2699C84.5601 24.6021 84.4371 24.8984 84.4371 24.9164C84.4371 24.9433 84.6392 24.9613 84.8852 24.9613H85.3333L85.5179 24.5123L85.7024 24.0634L87.0643 24.0813L88.4349 24.1083L88.5492 24.3776C88.7688 24.8894 88.7952 24.9164 89.2169 24.9433C89.6914 24.9792 89.7265 24.8715 89.4542 24.2789C89.3663 24.0903 89.2345 23.785 89.1554 23.6144C89.0851 23.4438 88.9358 23.0937 88.8303 22.8512C88.7249 22.5998 88.5755 22.2586 88.5052 22.088C88.3471 21.7378 88.1977 21.3787 87.7496 20.3371C87.5739 19.9421 87.3981 19.5111 87.3454 19.3674C87.2312 19.0711 86.9676 19.0442 86.8358 19.3225ZM87.1785 21.0734C87.2663 21.1542 87.3366 21.2709 87.3366 21.3428C87.3366 21.4056 87.3718 21.5313 87.4245 21.6211C87.4684 21.7019 87.5651 21.9264 87.6442 22.106C87.7145 22.2945 87.8375 22.5908 87.9165 22.7614C87.9868 22.932 88.022 23.1206 87.9956 23.1655C87.9253 23.2822 86.2208 23.2822 86.1593 23.1745C86.1329 23.1296 86.2823 22.6627 86.5019 22.1239C86.7216 21.5942 86.8973 21.1093 86.8973 21.0465C86.8973 20.8849 86.9852 20.8849 87.1785 21.0734Z" fill="white"/>
<path d="M90.8248 19.1879C90.7897 19.2148 90.7633 20.5347 90.7633 22.106V24.9613H92.5294H94.2867L94.2603 24.6201L94.234 24.2879L92.9599 24.243L91.6859 24.1981L91.6595 21.7289C91.642 19.8972 91.6156 19.2507 91.5278 19.1968C91.396 19.116 90.9039 19.107 90.8248 19.1879Z" fill="white"/>
<path d="M97.4585 19.1968C97.3795 19.2507 97.3531 19.8972 97.3707 22.097L97.397 24.9164L98.8029 24.9433C99.6112 24.9613 100.34 24.9343 100.525 24.8805C101.527 24.5752 102.001 23.3092 101.412 22.4831C101.272 22.2945 101.052 22.079 100.929 22.0072C100.639 21.8546 100.639 21.7917 100.876 21.3967C101.122 20.9926 101.079 20.2743 100.78 19.8433C100.428 19.3495 99.9363 19.1789 98.6711 19.143C98.0648 19.134 97.5201 19.1519 97.4585 19.1968ZM99.8924 20.1665C100.112 20.3461 100.165 20.4718 100.165 20.7412C100.165 21.3248 99.9539 21.4775 99.1192 21.5403C98.7238 21.5762 98.3635 21.5762 98.3196 21.5493C98.223 21.4864 98.179 20.1755 98.2669 20.0319C98.302 19.978 98.5832 19.9331 98.9786 19.9331C99.5409 19.9331 99.6551 19.96 99.8924 20.1665ZM100.297 22.4651C100.736 22.6717 100.92 23.372 100.639 23.7761C100.393 24.1442 100.059 24.243 99.1104 24.243H98.2317V23.3002V22.3574H99.1543C99.6727 22.3574 100.165 22.4023 100.297 22.4651Z" fill="white"/>
<path d="M102.774 19.1789C102.739 19.2148 102.713 20.0947 102.713 21.1273C102.713 23.2643 102.792 23.7222 103.284 24.3058C103.6 24.6919 104.206 25.0062 104.813 25.1049C105.384 25.1947 106.227 24.9254 106.702 24.5033C107.352 23.9197 107.405 23.6952 107.44 21.3069L107.475 19.2238L107.247 19.1609C107.124 19.134 106.921 19.134 106.807 19.1609L106.596 19.2148L106.561 21.2979C106.535 23.3181 106.526 23.3989 106.333 23.6863C106.043 24.0903 105.691 24.2519 105.068 24.2519C104.611 24.2609 104.496 24.225 104.215 23.9915C103.662 23.5426 103.644 23.4259 103.591 21.1901L103.548 19.1699L103.196 19.143C102.994 19.125 102.809 19.143 102.774 19.1789Z" fill="white"/>
<path d="M109.065 19.1789C108.977 19.2148 108.951 19.8882 108.951 22.097V24.9702L109.373 24.9433L109.786 24.9164L109.83 23.8389L109.874 22.7614H110.392H110.919L111.719 23.8389L112.518 24.9164L112.975 24.9433C113.327 24.9613 113.432 24.9433 113.432 24.8356C113.432 24.7637 113.397 24.6919 113.362 24.6739C113.256 24.629 111.938 22.7525 111.938 22.6357C111.938 22.5819 111.974 22.537 112.009 22.537C112.044 22.537 112.237 22.3754 112.431 22.1778C113.116 21.4864 113.133 20.4359 112.457 19.7445C112.272 19.556 111.974 19.3584 111.789 19.3046C111.438 19.1878 109.25 19.0891 109.065 19.1789ZM111.71 20.2384C111.982 20.4988 112.026 20.5886 112.026 20.9657C112.026 21.3248 111.982 21.4236 111.754 21.6481C111.49 21.8995 111.446 21.9084 110.656 21.9084H109.83V20.9836C109.83 20.4718 109.856 20.0229 109.891 19.9959C109.918 19.96 110.278 19.9331 110.673 19.9331C111.376 19.9331 111.411 19.9421 111.71 20.2384Z" fill="white"/>
<path d="M114.53 19.2327C114.504 19.2956 114.495 20.6065 114.504 22.1329L114.53 24.9164H116.42H118.309V24.6021V24.2878L116.859 24.243L115.409 24.1981L115.383 23.2822C115.356 22.2048 115.26 22.2766 116.639 22.2407L117.518 22.2227V21.9084V21.5942L116.639 21.5762C115.277 21.5403 115.356 21.5852 115.383 20.7143L115.409 19.978L116.841 19.9511L118.273 19.9241L118.247 19.547L118.221 19.1699L116.393 19.143C114.979 19.125 114.557 19.143 114.53 19.2327Z" fill="white"/>
<path d="M121.296 19.6188C121.173 19.8972 121.076 20.1396 121.076 20.1576C121.076 20.1935 120.98 20.409 120.417 21.684C119.934 22.7704 119.758 23.1745 119.758 23.2104C119.758 23.2373 119.618 23.5516 119.46 23.9287C119.02 24.8894 119.02 24.9074 119.504 24.9433C119.881 24.9702 119.908 24.9523 120.048 24.6739C120.119 24.5123 120.206 24.3058 120.233 24.216C120.277 24.0813 120.417 24.0634 121.647 24.0634H123.018L123.211 24.5123C123.405 24.9613 123.405 24.9613 123.826 24.9613C124.055 24.9613 124.239 24.9254 124.239 24.8715C124.239 24.7637 123.976 24.0724 123.633 23.3181C123.484 22.9859 123.361 22.6986 123.361 22.6717C123.361 22.6537 123.22 22.3215 123.044 21.9354C122.869 21.5493 122.675 21.1093 122.614 20.9657C122.552 20.813 122.403 20.4718 122.289 20.2025C122.166 19.9331 122.016 19.5739 121.946 19.4123C121.762 18.9813 121.56 19.0442 121.296 19.6188ZM121.867 21.1273C121.867 21.1901 122.043 21.666 122.254 22.1958C122.473 22.7165 122.623 23.1745 122.596 23.2014C122.509 23.2912 120.83 23.2643 120.769 23.1655C120.742 23.1206 120.874 22.6896 121.076 22.2137C121.27 21.7289 121.428 21.2889 121.428 21.2261C121.428 21.0914 121.7 20.9118 121.797 20.9746C121.841 21.0016 121.867 21.0734 121.867 21.1273Z" fill="white"/>
<path d="M125.092 19.1789C124.977 19.3046 125.021 22.8243 125.153 23.3002C125.417 24.3238 125.953 24.8356 127.007 25.06C127.464 25.1498 127.605 25.1498 128.053 25.0151C128.993 24.7368 129.511 24.207 129.687 23.372C129.74 23.1296 129.766 22.106 129.757 21.0555L129.731 19.1699L129.441 19.143C128.905 19.0891 128.896 19.125 128.896 21.271C128.896 23.4438 128.852 23.6414 128.281 24.0364C127.868 24.3238 127.025 24.3238 126.603 24.0364C126.023 23.6504 125.962 23.363 125.909 21.1452L125.865 19.1699L125.513 19.143C125.311 19.125 125.127 19.143 125.092 19.1789Z" fill="white"/>
<path d="M13.4607 37.9088L13.4871 46.8248L13.8386 46.7979C14.0319 46.7799 14.5678 46.7081 15.0247 46.6363C15.4816 46.5555 16.1142 46.4657 16.4305 46.4208C17.4322 46.2771 18.1263 46.1694 18.7589 46.0616C19.1016 46.0077 19.6288 45.9269 19.9451 45.882C20.2614 45.8371 20.894 45.7384 21.3509 45.6576C22.3438 45.4959 23.1521 45.3702 23.9693 45.2625C24.2944 45.2086 24.9533 45.1099 25.4366 45.029C25.9198 44.9572 26.57 44.8495 26.8863 44.8046C27.2026 44.7597 27.8528 44.6609 28.3361 44.5801C28.8193 44.4993 29.4607 44.4005 29.7683 44.3556C30.067 44.3107 30.5766 44.2299 30.9105 44.185C31.2356 44.1312 31.8594 44.0324 32.2987 43.9516C32.7469 43.8798 33.2037 43.8169 33.3268 43.8169C33.7397 43.8169 33.9769 43.6283 34.4163 42.937C35.0313 41.9583 35.3213 41.2489 35.62 39.9021C35.8045 39.0491 35.8133 36.7954 35.6288 36.0681C35.5585 35.7808 35.497 35.4486 35.497 35.3319C35.497 35.2151 35.4618 35.0984 35.4179 35.0715C35.3828 35.0445 35.3213 34.9009 35.2949 34.7572C35.1367 33.9671 34.1878 32.4407 33.3268 31.6056C32.5887 30.8783 32.2812 30.6449 31.5168 30.2319C30.559 29.7021 29.8034 29.4597 28.2043 29.1813C27.2554 29.0107 26.7633 29.0018 20.3141 29.0018H13.4432L13.4607 37.9088Z" fill="white"/>
<path d="M54.6952 29.8637C54.0099 30.0433 53.307 30.5192 52.9379 31.0669C52.6304 31.5158 52.3668 32.3239 52.3668 32.8178C52.3668 33.59 52.7974 34.4968 53.4388 35.0535C54.581 36.0592 56.1362 36.0592 57.4278 35.0535C58.4558 34.2454 58.7369 32.5843 58.0604 31.2824C57.8671 30.9143 57.2081 30.3127 56.7512 30.0792C56.3646 29.8907 55.1082 29.756 54.6952 29.8637ZM55.855 30.6269C56.9885 30.8963 57.6386 31.857 57.5156 33.0602C57.3399 34.8021 55.2751 35.6282 54.0274 34.4699C53.4915 33.9671 53.3773 33.6887 53.3773 32.8627C53.3773 32.3239 53.4212 32.0097 53.5266 31.7762C53.7463 31.3183 54.3086 30.8245 54.7567 30.7077C54.9676 30.6539 55.1785 30.591 55.2224 30.5731C55.3718 30.5192 55.4157 30.5282 55.855 30.6269Z" fill="white"/>
<path d="M73.3663 29.8637C72.5579 30.0164 71.5212 30.9412 71.2312 31.7493C71.0379 32.3239 71.0379 33.4014 71.24 33.9132C71.7584 35.2151 73.2609 36.0232 74.6227 35.7359C75.3344 35.5833 75.7386 35.3678 76.1779 34.9188C76.5645 34.5148 76.5558 34.407 76.0901 34.1646C75.8616 34.0479 75.8353 34.0569 75.5629 34.3442C74.7633 35.1882 73.5772 35.2331 72.7073 34.4609C72.2241 34.0299 71.9605 33.4553 71.9605 32.8447C71.9693 31.7134 72.5843 30.9053 73.6562 30.6359C74.3328 30.4563 75.229 30.7616 75.6508 31.3093C75.8089 31.5158 75.8528 31.5248 76.0725 31.435C76.2043 31.3812 76.3625 31.2555 76.4152 31.1657C76.5118 31.013 76.4679 30.9412 76.1428 30.6359C75.5629 30.0882 75.106 29.8996 74.2889 29.8548C73.9023 29.8368 73.4893 29.8458 73.3663 29.8637Z" fill="white"/>
<path d="M79.6046 29.8637C78.8929 30.0074 77.9088 30.8334 77.575 31.5877C77.3114 32.1893 77.3026 33.3655 77.5574 33.9581C78.1285 35.26 79.5519 36.0143 80.905 35.7359C81.6079 35.5923 82.0209 35.3768 82.5393 34.856C83.1455 34.2544 83.33 33.7785 83.3388 32.8088C83.3388 32.0905 83.3125 31.9378 83.0928 31.4979C82.8029 30.9232 82.3635 30.4653 81.7661 30.1241C81.4146 29.9266 81.1949 29.8817 80.5799 29.8548C80.1669 29.8368 79.7276 29.8458 79.6046 29.8637ZM80.8171 30.6269C81.4937 30.7975 82.056 31.2824 82.3372 31.9468C82.9259 33.3386 81.8451 35.0176 80.3515 35.0176C79.1389 35.0176 78.2867 34.0838 78.2867 32.7729C78.2867 31.5428 79.0247 30.7347 80.3339 30.5371C80.3778 30.5371 80.5887 30.5731 80.8171 30.6269Z" fill="white"/>
<path d="M84.6304 32.7459L84.6568 35.6731H85.0082H85.3597L85.386 33.7785C85.4036 32.2611 85.43 31.875 85.5266 31.875C85.5881 31.875 86.3086 32.6472 87.1257 33.5989C88.927 35.7 89.0763 35.8526 89.1818 35.7808C89.2345 35.7449 89.2696 34.6315 89.2696 32.8088V29.8996H88.8303H88.391V31.7762C88.391 32.8178 88.3558 33.6798 88.3207 33.7067C88.2856 33.7246 88.1098 33.563 87.9341 33.3475C87.7584 33.1231 87.3366 32.6292 87.0027 32.2521C86.6689 31.875 86.2647 31.3991 86.0977 31.2016C85.4915 30.4653 84.8413 29.8099 84.7271 29.8099C84.6304 29.8099 84.6128 30.3396 84.6304 32.7459Z" fill="white"/>
<path d="M92.7842 29.8637C92.0198 30.0074 91.1499 30.7437 90.7457 31.5877C90.4821 32.1444 90.4294 33.1141 90.6227 33.7157C91.106 35.1523 92.6084 36.0412 94.0758 35.7359C94.805 35.5923 95.0511 35.4665 95.6134 34.9278C96.7029 33.9132 96.8786 32.3599 96.0439 31.1208C95.7715 30.7167 95.1477 30.2139 94.6732 29.9984C94.4009 29.8727 93.1708 29.7919 92.7842 29.8637ZM94.1373 30.6808C94.5678 30.7616 95.1126 31.2195 95.3762 31.7044C95.8418 32.5933 95.631 33.8683 94.9105 34.4789C94.0406 35.2331 92.8896 35.1882 92.0725 34.3891C91.6595 33.985 91.3784 33.3386 91.3784 32.7908C91.3784 32.279 91.6947 31.5338 92.0813 31.1477C92.4151 30.8065 93.2499 30.5102 93.654 30.582C93.7683 30.609 93.9791 30.6539 94.1373 30.6808Z" fill="white"/>
<path d="M97.7661 29.8637C97.7309 29.8996 97.7046 31.2195 97.7046 32.7908V35.6551L98.1527 35.6282L98.6008 35.6012L98.6183 33.9401C98.6271 32.5843 98.6535 32.279 98.7501 32.279C98.8204 32.279 99.1719 32.6921 99.5409 33.1949C100.376 34.3352 100.534 34.407 100.912 33.8593C101.052 33.6528 102.054 32.288 102.159 32.1533C102.273 32.0097 102.309 32.4496 102.317 33.9222V35.6012H102.739C102.968 35.6012 103.152 35.5743 103.152 35.5294C103.152 35.4935 103.152 34.1915 103.152 32.6292C103.152 30.1151 103.135 29.8009 103.012 29.8278C102.941 29.8458 102.353 30.5641 101.711 31.4261C101.07 32.288 100.507 32.9974 100.463 32.9884C100.428 32.9884 99.866 32.279 99.2334 31.4171C98.1439 29.9535 97.9154 29.7111 97.7661 29.8637Z" fill="white"/>
<path d="M108.995 29.8907C108.301 30.0792 107.58 30.6269 107.176 31.2914C106.842 31.8301 106.693 32.7459 106.834 33.3386C107.009 34.0658 107.185 34.3891 107.668 34.8829C108.204 35.4306 108.485 35.5833 109.241 35.7359C109.9 35.8706 110.568 35.7718 111.209 35.4486C111.605 35.2511 112.202 34.6944 112.193 34.5327C112.193 34.4789 112.079 34.3352 111.93 34.2275L111.675 34.012L111.244 34.407C110.19 35.3678 108.688 35.1433 107.985 33.9222C107.73 33.4822 107.712 33.3924 107.739 32.719C107.765 32.1084 107.8 31.9378 108.002 31.6326C108.512 30.8424 109.408 30.4384 110.225 30.6269C110.726 30.7526 111.244 31.0579 111.446 31.3542C111.578 31.5518 111.596 31.5518 111.833 31.4081C112.255 31.1477 112.272 31.013 111.956 30.6808C111.464 30.169 110.787 29.8817 109.97 29.8458C109.575 29.8278 109.144 29.8458 108.995 29.8907Z" fill="white"/>
<path d="M127.71 29.8637C127.306 29.9715 126.954 30.1959 126.744 30.4743C126.559 30.7257 126.524 30.8694 126.524 31.3632C126.524 31.9378 126.541 31.9827 126.858 32.306C127.051 32.5035 127.561 32.8268 128.062 33.0782C129.177 33.6259 129.248 33.6887 129.248 34.1736C129.248 34.5058 129.204 34.5956 128.958 34.7842C128.439 35.1882 127.631 35.0535 127.104 34.4878C126.805 34.1736 126.691 34.1467 126.392 34.3532C126.12 34.5327 126.12 34.5776 126.41 34.9278C126.744 35.3408 127.2 35.6012 127.798 35.7269C128.668 35.9155 129.59 35.6012 129.951 34.9996C130.311 34.3891 130.249 33.6079 129.792 33.1141C129.669 32.9794 129.16 32.6651 128.65 32.4137C127.666 31.9199 127.315 31.6326 127.315 31.3363C127.315 30.7886 128.009 30.4114 128.633 30.618C128.817 30.6808 129.063 30.8334 129.169 30.9412C129.283 31.0579 129.423 31.1567 129.485 31.1567C129.661 31.1567 130.038 30.8873 130.038 30.7616C130.038 30.6359 129.669 30.2768 129.309 30.0433C129.063 29.8907 128.053 29.7739 127.71 29.8637Z" fill="white"/>
<path d="M138.491 29.9176C138.412 30.0343 137.858 31.2195 137.858 31.3004C137.858 31.3183 137.718 31.6416 137.551 32.0187C137.384 32.3868 137.243 32.71 137.243 32.737C137.243 32.7549 137.085 33.15 136.883 33.5989C136.681 34.0569 136.444 34.6136 136.347 34.838C136.25 35.0625 136.136 35.3139 136.092 35.4037C135.96 35.6461 136.04 35.691 136.514 35.6641C136.927 35.6282 136.936 35.6192 137.129 35.1882L137.322 34.7482H138.64H139.967L140.169 35.1702C140.345 35.5653 140.398 35.6012 140.74 35.6551C140.942 35.682 141.153 35.6731 141.197 35.6461C141.259 35.6102 141.162 35.3049 140.934 34.8021C140.74 34.3711 140.582 34.003 140.582 33.9761C140.582 33.9581 140.442 33.6349 140.275 33.2577C140.108 32.8896 139.967 32.5664 139.967 32.5484C139.967 32.5215 139.862 32.2791 139.739 31.9917C139.607 31.7044 139.449 31.3273 139.37 31.1567C139.299 30.9861 139.167 30.6808 139.08 30.4923C138.983 30.2947 138.913 30.0882 138.913 30.0254C138.913 29.9715 138.851 29.8907 138.772 29.8637C138.588 29.7919 138.596 29.7919 138.491 29.9176ZM139.167 32.71C139.414 33.3116 139.616 33.8414 139.616 33.8773C139.616 33.9132 139.185 33.9401 138.649 33.9401C137.902 33.9401 137.683 33.9132 137.683 33.8234C137.683 33.7516 137.709 33.6708 137.744 33.6438C137.77 33.6079 137.867 33.3924 137.946 33.159C138.034 32.9166 138.175 32.5484 138.271 32.3239C138.377 32.0995 138.473 31.8481 138.509 31.7583C138.535 31.6775 138.588 31.6056 138.632 31.6056C138.675 31.6056 138.913 32.0995 139.167 32.71Z" fill="white"/>
<path d="M149.72 29.8637C149.351 29.9445 148.78 30.2408 148.446 30.5371C147.708 31.2016 147.383 32.0097 147.453 33.0243C147.55 34.416 148.463 35.4306 149.913 35.7449C150.827 35.9424 152.04 35.5474 152.628 34.856C152.909 34.5327 152.909 34.4789 152.549 34.2185L152.303 34.0389L151.89 34.416C150.853 35.3768 149.368 35.1523 148.613 33.9222C148.411 33.6079 148.384 33.4553 148.384 32.8268C148.384 32.1084 148.428 31.9468 148.78 31.4171C149.175 30.8155 150.133 30.4563 150.845 30.6269C151.398 30.7706 151.644 30.9053 151.952 31.2375C152.101 31.3901 152.259 31.5158 152.303 31.5158C152.461 31.5069 152.795 31.1836 152.795 31.04C152.795 30.8694 151.925 30.0792 151.741 30.0792C151.662 30.0792 151.556 30.0343 151.512 29.9894C151.407 29.8817 150.071 29.7919 149.72 29.8637Z" fill="white"/>
<path d="M59.6595 32.7729V35.6461H60.0989H60.5382V34.4789V33.3206L61.6628 33.2937L62.7787 33.2667L62.8051 32.8896L62.8314 32.5125L61.7068 32.4856L60.5821 32.4586L60.5558 31.5787L60.5294 30.7077H61.8913H63.2532L63.3147 30.4025C63.341 30.2319 63.341 30.0523 63.3059 29.9984C63.2707 29.9356 62.6293 29.8996 61.452 29.8996H59.6595V32.7729Z" fill="white"/>
<path d="M66.5129 32.7549C66.5129 34.3262 66.5305 35.6371 66.5481 35.6551C66.5656 35.6731 67.4443 35.682 68.4898 35.6641L70.3877 35.6371L70.3613 35.3049L70.335 34.9727L68.9379 34.9458C68.1647 34.9368 67.497 34.8829 67.4443 34.847C67.3388 34.7572 67.33 33.159 67.4355 33.0602C67.4706 33.0243 67.9539 32.9794 68.5162 32.9525L69.5442 32.9076V32.5933V32.2791L68.4723 32.2521C67.5233 32.2342 67.3915 32.2072 67.3828 32.0725C67.3828 31.9917 67.374 31.6595 67.3652 31.3363L67.3476 30.7526L68.7974 30.7077L70.2471 30.6629L70.2735 30.2768L70.2998 29.8996H68.4108H66.5129V32.7549Z" fill="white"/>
<path d="M104.795 29.9625C104.76 29.9894 104.734 31.2824 104.734 32.8357V35.6461H105.173H105.612V32.7729V29.8996H105.234C105.024 29.8996 104.822 29.9266 104.795 29.9625Z" fill="white"/>
<path d="M115.98 32.7639V35.6282L116.34 35.6641C116.534 35.682 116.709 35.682 116.736 35.6551C116.753 35.6371 116.771 35.1702 116.771 34.6136C116.771 33.9581 116.806 33.581 116.876 33.5092C116.938 33.4463 117.175 33.4014 117.404 33.4014C117.904 33.4014 117.94 33.4283 118.889 34.7482L119.539 35.6461H119.996C120.25 35.6461 120.461 35.6282 120.461 35.6012C120.461 35.5474 119.337 33.9581 119.126 33.7067C118.915 33.4643 118.924 33.2488 119.161 33.1231C119.89 32.719 120.18 31.5787 119.741 30.7886C119.345 30.0702 118.862 29.8996 117.237 29.8996H115.98V32.7639ZM118.713 30.8783C118.827 30.9681 118.976 31.1836 119.038 31.3542C119.178 31.7673 118.994 32.2611 118.59 32.5035C118.212 32.737 116.912 32.7639 116.824 32.5394C116.753 32.3509 116.753 30.8424 116.833 30.7706C116.859 30.7347 117.254 30.7077 117.694 30.7077C118.353 30.7077 118.546 30.7347 118.713 30.8783Z" fill="white"/>
<path d="M121.516 32.7729V35.6461H123.449H125.382V35.287V34.9278L123.914 34.9099L122.438 34.8829L122.412 33.9671C122.386 32.8896 122.289 32.9614 123.668 32.9255L124.547 32.9076V32.5933V32.279L123.493 32.2342L122.438 32.1893L122.412 31.444L122.386 30.7077H123.791H125.206L125.259 30.4923C125.285 30.3665 125.294 30.1959 125.276 30.1062C125.25 29.9535 125.109 29.9445 123.378 29.9176L121.516 29.8996V32.7729Z" fill="white"/>
<path d="M131.506 29.9625C131.418 30.0523 131.435 35.5384 131.515 35.5923C131.558 35.6192 132.42 35.6461 133.43 35.6461L135.266 35.6641L135.293 35.2959L135.319 34.9278H133.878C132.639 34.9278 132.42 34.9099 132.376 34.7842C132.349 34.7033 132.323 34.3083 132.323 33.8952C132.323 33.3655 132.358 33.1231 132.446 33.0512C132.525 32.9794 132.885 32.9435 133.465 32.9614C133.966 32.9704 134.396 32.9345 134.44 32.8896C134.493 32.8357 134.52 32.6831 134.502 32.5394L134.476 32.279L133.421 32.2342L132.367 32.1893V31.4709V30.7526L133.773 30.7077L135.178 30.6628L135.205 30.2768L135.231 29.8996H133.395C132.384 29.8996 131.532 29.9266 131.506 29.9625Z" fill="white"/>
<path d="M142.339 32.7549C142.339 34.3262 142.357 35.6371 142.383 35.6641C142.41 35.682 142.594 35.682 142.796 35.6551L143.174 35.6012L143.2 34.5597C143.227 33.4014 143.227 33.4014 143.859 33.4014C144.237 33.4014 144.395 33.5271 144.905 34.2275C146.047 35.7898 145.889 35.6461 146.425 35.6461C146.847 35.6461 147.058 35.5474 146.838 35.4486C146.794 35.4306 146.592 35.1792 146.381 34.8829C146.179 34.5866 145.845 34.1287 145.652 33.8773L145.309 33.4014L145.784 32.9165C146.179 32.5215 146.276 32.3688 146.32 32.0456C146.416 31.3183 146.223 30.6898 145.792 30.3486C145.309 29.9625 145.019 29.8996 143.649 29.8996H142.339V32.7549ZM145.239 31.031C145.538 31.3901 145.582 31.7583 145.353 32.1444C145.133 32.5394 144.685 32.6921 143.921 32.6651L143.262 32.6382L143.236 31.6775C143.209 30.5731 143.13 30.6449 144.237 30.6898C144.949 30.7167 144.975 30.7257 145.239 31.031Z" fill="white"/>
<path d="M154.113 32.7729V35.6551L154.535 35.6282L154.948 35.6012L154.965 34.434C154.974 33.7875 154.983 33.2129 154.983 33.15C154.992 33.0602 155.317 33.0423 156.468 33.0602L157.935 33.0872L157.962 34.3532L157.988 35.6282L158.295 35.6641C158.462 35.682 158.638 35.6551 158.691 35.5923C158.744 35.5294 158.761 34.425 158.752 32.719L158.726 29.9445L158.357 29.9176L157.979 29.8907V30.9232C157.979 31.4889 157.953 32.0097 157.926 32.0905C157.882 32.2162 157.663 32.2342 156.433 32.2342H155.001L154.974 31.0849L154.948 29.9445L154.535 29.9176L154.113 29.8907V32.7729Z" fill="white"/>
</svg>
