<svg width="80" height="50" viewBox="0 0 80 50" fill="none" xmlns="http://www.w3.org/2000/svg">
<path d="M59.7353 18.6057V37.2114H64.0412L68.3382 37.2025L70.4029 35L72.4588 32.8064L73.3147 33.6945C73.7912 34.1918 74.7265 35.1776 75.4059 35.9059L76.6323 37.2114H77.9735H79.3235V18.6057V0L74.9823 0.00888062H70.6323L69.7059 1.00355C69.1941 1.55417 68.2765 2.53108 67.6676 3.17939L66.5559 4.35168L64.5088 2.17584L62.4529 0H61.0941H59.7353V18.6057ZM64.4471 5.94139C65.6118 7.16696 66.5823 8.17052 66.6176 8.17052C66.6706 8.17052 70.4647 4.19183 71.4 3.16163L71.7265 2.79751L71.7353 5.19538V7.59325L69.2294 10.2575C67.8441 11.7229 66.6794 12.9218 66.6265 12.9218C66.5735 12.9218 65.3823 11.7052 63.9706 10.2131L61.4118 7.50444L61.4206 5.10657V2.7087L61.8794 3.20604C62.1353 3.49023 63.2912 4.71581 64.4471 5.94139ZM61.7823 18.6057C61.8265 19.8845 61.8882 20.0266 62.4618 20.0266C63.0441 20.0266 63.0882 19.9378 63.0882 18.6412V17.4956H63.3971H63.7059V18.4458C63.7059 19.6359 63.6088 20 63.2382 20.2664C62.8765 20.524 62.0912 20.5506 61.7294 20.3108C61.3412 20.0533 61.2353 19.6714 61.2353 18.5169V17.4956H61.4912H61.7471L61.7823 18.6057ZM65.4176 18.4725C65.7441 19.0053 66.0441 19.4671 66.0882 19.4938C66.1412 19.5293 66.1765 19.1474 66.1765 18.5258V17.4956H66.4412H66.7059V18.9609V20.4263H66.4147C66.15 20.4263 66.0971 20.373 65.5235 19.4494C65.1971 18.9076 64.8882 18.4725 64.8441 18.4725C64.8 18.4725 64.7647 18.9076 64.7647 19.4494V20.4263H64.5441H64.3235V18.9609V17.4956H64.5706C64.8 17.4956 64.8882 17.6021 65.4176 18.4725ZM69.1765 17.6288C69.4588 17.7709 69.7941 18.1705 69.7941 18.3481C69.7941 18.4281 69.6971 18.4725 69.5294 18.4725C69.3882 18.4725 69.2647 18.4281 69.2647 18.3837C69.2647 18.1705 68.9029 17.9396 68.5676 17.9396C68.2853 17.9396 68.1794 17.9929 67.9853 18.2238C67.7735 18.4813 67.7471 18.5613 67.7823 19.0675C67.8088 19.5027 67.8618 19.6803 68.0118 19.8224C68.3912 20.2043 69.2647 19.9911 69.2647 19.5204C69.2647 19.405 69.3353 19.3606 69.5294 19.3606C69.8471 19.3606 69.8735 19.5204 69.6176 19.9378C69.2471 20.5329 68.3206 20.6572 67.7559 20.1865C66.7235 19.3073 67.2441 17.4956 68.5323 17.4956C68.7441 17.4956 69.0353 17.5577 69.1765 17.6288ZM72.4412 17.762C72.4412 18.0195 72.4323 18.0284 72 18.0284H71.5588V19.2274V20.4263H71.2941H71.0294V19.2274V18.0284H70.5882C70.1559 18.0284 70.1471 18.0195 70.1471 17.762V17.4956H71.2941H72.4412V17.762ZM74.3647 17.9574C74.4618 18.2149 74.7 18.8632 74.9029 19.3961C75.1059 19.929 75.2647 20.3819 75.2647 20.3996C75.2647 20.4174 75.1412 20.4263 74.9823 20.4085C74.7441 20.3908 74.6823 20.3286 74.6118 20.0888L74.5323 19.8046H73.9235H73.3147L73.1823 20.1155C73.0765 20.3641 73.0059 20.4263 72.8029 20.4263H72.5559L73.0941 18.9609L73.6323 17.4956H73.9147C74.1706 17.4956 74.2059 17.5311 74.3647 17.9574ZM77.1088 17.5933C77.8676 17.7531 78.3 18.5169 78.0882 19.3339C77.8765 20.1954 77.5147 20.4263 76.3765 20.4263H75.6176V18.9609V17.4956H76.1471C76.4294 17.4956 76.8706 17.54 77.1088 17.5933ZM75.9529 27.7709L77.6471 29.5648V31.9449V34.325L77.1706 33.8366C76.9059 33.5702 75.75 32.3446 74.6029 31.1279C73.4559 29.9023 72.4676 28.9076 72.4059 28.9076C72.3441 28.9076 71.1618 30.1066 69.7853 31.5631L67.2794 34.2185L67.2529 31.9361C67.2353 30.2309 67.2618 29.6092 67.3412 29.4494C67.4029 29.3339 68.5676 28.0639 69.9265 26.6252L72.3971 24.0142L73.3235 24.9911C73.8353 25.5329 75.0176 26.7851 75.9529 27.7709Z" fill="#069EDB"/>
<path d="M73.6853 18.6945C73.5794 18.9698 73.5 19.2274 73.5 19.2718C73.5 19.325 73.6765 19.3606 73.8971 19.3606C74.1441 19.3606 74.2941 19.3162 74.2941 19.254C74.2941 19.0675 73.9941 18.206 73.9324 18.206C73.8971 18.206 73.7824 18.4281 73.6853 18.6945Z" fill="#069EDB"/>
<path d="M76.147 19.0142V20L76.6853 19.9645C77.4 19.9112 77.5588 19.7336 77.5588 18.9876C77.5588 18.5524 77.5235 18.4281 77.3382 18.2504C77.1617 18.0639 77.0382 18.0284 76.6323 18.0284H76.147V19.0142Z" fill="#069EDB"/>
<path d="M22.9412 6.01243C22.9412 12.3091 22.9765 13.0018 23.3735 14.1474C23.9029 15.675 24.847 16.7762 26.2235 17.4423C27.5912 18.1172 28.3059 18.2504 30.4853 18.2504C32.1176 18.2504 32.4353 18.2238 33.1323 18.0462C35.5323 17.4423 37.1647 15.9325 37.7559 13.7655C38.0647 12.6732 38.1176 11.421 38.1176 5.61279V0.08881H36.1412H34.1559L34.1206 6.19005C34.0941 11.341 34.0676 12.3712 33.9529 12.7442C33.5206 14.1652 32.8412 14.7247 31.2618 14.929C29.3735 15.1687 27.8735 14.5559 27.2823 13.3037C26.9382 12.5666 26.9118 11.9893 26.9118 5.92362V0.08881H24.9265H22.9412V6.01243Z" fill="#069EDB"/>
<path d="M39.353 9.01421V17.9396H41.2059H43.0588L43.0765 12.0604L43.103 6.17229L46.7206 12.0337L50.3383 17.8952L52.35 17.9218L54.353 17.9396V9.01421V0.08881H52.5H50.6471L50.6294 6.01243L50.603 11.9361L46.9412 6.01243L43.2883 0.08881H41.3206H39.353V9.01421Z" fill="#069EDB"/>
<path d="M9.13233 0.657196C5.34704 1.4032 2.79704 4.92896 3.26469 8.75666C3.62645 11.6874 5.68233 14.1119 8.48821 14.929C9.41469 15.1954 10.95 15.2576 11.9206 15.0622C14.7088 14.4938 16.8529 12.4334 17.5588 9.64476C17.8059 8.67673 17.8059 7.05151 17.5588 6.0746C16.9235 3.53464 14.9735 1.51865 12.4412 0.799293C11.5853 0.559505 9.99704 0.488458 9.13233 0.657196ZM10.3235 1.45649V1.93606L9.82057 1.99823C8.7441 2.13144 7.62351 2.60213 6.82939 3.25045L6.46763 3.54352L6.13233 3.19716C5.95586 3.01066 5.83233 2.81528 5.8588 2.76199C5.97351 2.57549 7.04116 1.86501 7.59704 1.59858C8.30292 1.26999 9.35292 0.985793 9.9088 0.985793L10.3235 0.976912V1.45649ZM12.5735 1.27887C13.297 1.50977 14.3647 2.09592 14.9117 2.56661L15.2206 2.83304L14.9206 3.14388C14.7529 3.3215 14.5941 3.46359 14.5676 3.46359C14.4794 3.45471 14.1176 2.83304 14.1176 2.69983C14.1176 2.51332 13.897 2.45116 13.597 2.55773C13.3853 2.62878 13.2353 2.61102 12.7853 2.42451C12.4764 2.30018 12 2.1492 11.7176 2.09592C11.0559 1.97158 10.9853 1.80285 11.5588 1.72292C11.8059 1.68739 12 1.62523 12 1.58082C12 1.48313 11.2059 1.52753 10.8794 1.64299C10.6941 1.70515 10.6764 1.67851 10.6764 1.33215V0.950269L11.2764 1.00356C11.6029 1.0302 12.1853 1.15453 12.5735 1.27887ZM10.3235 2.87745V3.35702L9.71468 3.46359C9.03527 3.57904 8.22351 3.93428 7.78233 4.30729L7.49116 4.55595L7.13821 4.20959L6.78527 3.86324L7.12057 3.57016C7.76469 3.00178 9.20292 2.41563 9.99704 2.40675L10.3235 2.39787V2.87745ZM11.6206 2.48668C11.8235 2.53109 12.2029 2.65542 12.4588 2.75311C12.8559 2.90409 12.9529 2.9929 13.1294 3.33038C13.2353 3.5524 13.3235 3.81883 13.3235 3.9254V4.1119L13.1206 3.9254C12.9176 3.73002 12.7412 3.65897 12.8294 3.80995C12.9 3.91652 12.5294 3.86324 12.15 3.6945C11.9559 3.61457 11.55 3.508 11.2412 3.45471L10.6764 3.35702V2.87745V2.39787H10.9676C11.1176 2.39787 11.4176 2.44228 11.6206 2.48668ZM16.0147 3.76554C16.7382 4.78686 17.1882 5.94139 17.3382 7.16697L17.4 7.63766H16.8706H16.35L16.297 7.07816C16.2441 6.51865 15.8912 5.38189 15.6353 4.97336C15.5559 4.84903 15.3176 4.55595 15.1059 4.31617L14.7264 3.881L15.097 3.49911C15.3 3.28597 15.5029 3.13499 15.547 3.16164C15.5823 3.18828 15.7941 3.45471 16.0147 3.76554ZM5.84998 3.53464C6.14998 3.83659 6.16763 3.88988 6.0441 3.99645C5.78821 4.20959 5.13527 5.373 4.94116 5.95027C4.83527 6.2611 4.72057 6.76732 4.6941 7.06039L4.63233 7.59325L4.11174 7.6199L3.59116 7.64654L3.65292 7.13144C3.74116 6.34991 3.95292 5.61279 4.27939 4.92007C4.58821 4.28952 5.32057 3.19716 5.45292 3.19716C5.48821 3.19716 5.67351 3.34814 5.84998 3.53464ZM10.3235 4.2984V4.77798L9.86469 4.88455C9.6088 4.93784 9.18527 5.10658 8.92057 5.24867L8.4441 5.52398L8.1088 5.1865L7.77351 4.85791L8.05586 4.64476C8.64704 4.19183 9.51174 3.84547 10.0853 3.82771C10.3147 3.81883 10.3235 3.83659 10.3235 4.2984ZM11.6382 3.98757C12.2117 4.16519 12.8647 4.52043 13.0588 4.75134C13.1647 4.87567 13.1382 4.93784 12.8559 5.22203C12.5735 5.49734 12.5029 5.53286 12.3706 5.44405C12.0088 5.17762 11.5323 4.96448 11.1176 4.87567L10.6764 4.77798V4.2984C10.6764 3.85435 10.6941 3.81883 10.8882 3.81883C11.0029 3.81883 11.3382 3.88988 11.6382 3.98757ZM13.7912 4.12078C13.8794 4.33393 13.6412 4.45826 13.5176 4.26288C13.4382 4.13855 13.447 4.08526 13.5264 4.05862C13.7029 3.97869 13.747 3.98757 13.7912 4.12078ZM6.83821 5.31972C6.4588 5.8437 6.09704 6.82061 6.08821 7.30018V7.63766H5.5588C4.94998 7.63766 4.9588 7.6643 5.16174 6.7318C5.31174 6.01244 5.69116 5.16874 6.14116 4.5826L6.46763 4.15631L6.81174 4.51155L7.16469 4.85791L6.83821 5.31972ZM14.4794 4.9556C14.5764 5.03553 14.7882 5.23091 14.947 5.38189C15.097 5.53286 15.3088 5.7016 15.4147 5.75489C15.5912 5.85258 15.8029 6.46537 15.9264 7.25578L15.9882 7.63766H15.45H14.9117L14.9029 7.30018C14.9029 7.12256 14.9029 6.78508 14.9117 6.55418C14.9206 6.32327 14.8588 6.02132 14.7794 5.87034C14.6117 5.53286 14.5235 5.5151 14.6029 5.83482C14.6559 6.0746 14.6559 6.0746 14.5235 5.90586C14.4529 5.80817 14.3823 5.69272 14.3823 5.64832C14.3823 5.60391 14.2412 5.39965 14.0823 5.19538C13.8529 4.92007 13.8 4.79574 13.8706 4.72469C13.9764 4.61812 14.1706 4.68917 14.4794 4.9556ZM13.6323 5.52398C13.5617 5.56839 13.5 5.67496 13.5 5.75489C13.5 5.8437 13.4559 5.95915 13.3941 6.02132C13.3147 6.10125 13.3235 6.12789 13.4382 6.12789C13.5794 6.12789 13.8176 5.79929 13.7823 5.6572C13.7735 5.61279 13.8 5.60391 13.8529 5.63943C13.897 5.66608 13.9412 5.78153 13.9412 5.87922C13.9412 5.98579 14.0206 6.15453 14.1088 6.25222C14.3559 6.51865 14.4176 6.84725 14.25 7.06039C14.1176 7.22913 14.1176 7.22913 14.1617 7.00711C14.197 6.85613 14.1706 6.74068 14.0735 6.66075C13.9412 6.55418 13.9059 6.55418 13.8 6.70515C13.6853 6.85613 13.6588 6.86501 13.5882 6.74956C13.5441 6.67851 13.5 6.5897 13.5 6.5453C13.5 6.50977 13.4117 6.43872 13.3059 6.38544C13.1912 6.33215 13.0323 6.19006 12.9353 6.06572L12.7764 5.8437L13.1117 5.49734C13.4294 5.16874 13.4559 5.15986 13.6059 5.30196C13.747 5.43517 13.7559 5.46181 13.6323 5.52398ZM7.8441 5.54174C8.00292 5.71048 8.12645 5.87922 8.1088 5.92363C7.97645 6.2167 7.44704 6.90942 7.28821 6.98046C7.19116 7.02487 7.06763 7.19361 7.01469 7.34459C6.95292 7.58437 6.89116 7.63766 6.67939 7.63766C6.43233 7.63766 6.42351 7.62878 6.48527 7.25578C6.52057 7.05151 6.62645 6.67851 6.72351 6.42984C6.89116 5.95915 7.3588 5.23979 7.48233 5.23979C7.51763 5.23979 7.68527 5.373 7.8441 5.54174ZM10.3059 5.74601C10.2794 6.2167 10.2617 6.2611 10.0853 6.24334C9.97057 6.22558 9.88233 6.25222 9.88233 6.29663C9.88233 6.33215 9.78527 6.41208 9.67057 6.46537C9.48527 6.5453 9.42351 6.51865 9.12351 6.20782C8.75292 5.82594 8.7441 5.83482 9.3088 5.53286C9.6088 5.36412 9.9441 5.25755 10.1735 5.24867C10.3147 5.23979 10.3323 5.30196 10.3059 5.74601ZM11.7529 5.56839C12.1764 5.79929 12.1764 5.79929 11.9823 5.94139C11.8676 6.01244 11.7 6.17229 11.5941 6.29663C11.4088 6.51865 11.1706 6.49201 11.2676 6.2611C11.3206 6.10125 11.1088 6.08348 10.9676 6.22558C10.7912 6.4032 10.6764 6.20782 10.6764 5.71048V5.22203L11.0117 5.28419C11.1882 5.31972 11.5235 5.44405 11.7529 5.56839ZM8.73527 6.43872C8.84998 6.56306 8.8941 6.66075 8.84116 6.66075C8.78821 6.66075 8.71763 6.61634 8.69116 6.57194C8.66469 6.51865 8.5588 6.48313 8.47057 6.48313C8.35586 6.48313 8.32057 6.43872 8.34704 6.34991C8.41763 6.16341 8.49704 6.18118 8.73527 6.43872ZM10.6235 6.98046C10.9323 7.13144 11.1794 7.50444 11.0294 7.59325C10.9059 7.67318 10.9235 7.90409 11.047 7.87745C11.197 7.8508 11.25 8.1794 11.1088 8.26821C11.0117 8.3215 11.0206 8.34814 11.1441 8.40142C11.3294 8.47247 11.25 8.61457 11.0206 8.61457C10.9235 8.61457 10.8088 8.71226 10.747 8.83659C10.65 9.05862 10.2353 9.16519 10.2353 8.96093C10.2353 8.90764 10.1559 8.881 10.0588 8.90764C9.96174 8.93428 9.88233 8.91652 9.88233 8.87212C9.88233 8.82771 9.93527 8.79219 10.0059 8.79219C10.147 8.79219 10.4117 8.41919 10.4117 8.21492C10.4117 8.14388 10.3764 8.08171 10.3235 8.08171C10.2794 8.08171 10.2353 8.01954 10.2353 7.94849C10.2353 7.87745 10.2 7.81528 10.147 7.81528C10.1029 7.81528 10.0588 7.76199 10.0588 7.69094C10.0588 7.62878 9.99704 7.52221 9.92645 7.46004C9.73233 7.30018 9.7588 7.20249 10.0147 7.14032C10.1382 7.11368 10.2353 7.03375 10.2353 6.9627C10.2353 6.80285 10.2529 6.80285 10.6235 6.98046ZM14.4882 7.41563C14.5323 7.61102 14.5059 7.63766 14.2853 7.63766C14.1176 7.63766 14.0294 7.59325 14.0294 7.50444C14.0294 7.4334 14.1088 7.37123 14.2059 7.37123C14.3029 7.37123 14.3823 7.32682 14.3823 7.28242C14.3823 7.11368 14.4529 7.19361 14.4882 7.41563ZM9.25586 7.93961C9.33527 8.0373 9.31763 8.07283 9.1588 8.11723C8.84116 8.19716 8.81468 8.1794 8.91174 7.9929C9.02645 7.78864 9.11469 7.77087 9.25586 7.93961ZM4.68527 8.61457C4.72057 8.881 4.77351 9.21848 4.8088 9.35169C4.87057 9.60036 4.86174 9.60924 4.57939 9.59148C4.11174 9.56483 4.07645 9.57372 4.00586 9.78686C3.95292 9.96448 3.92645 9.92007 3.82939 9.54707C3.7588 9.2984 3.68821 8.87212 3.65292 8.58792L3.59116 8.07283L4.11174 8.09947L4.63233 8.12611L4.68527 8.61457ZM6.08821 8.25933C6.08821 8.34814 5.99116 8.57904 5.86763 8.75666C5.7441 8.93428 5.64704 9.20071 5.64704 9.33393C5.64704 9.52931 5.60292 9.59148 5.47057 9.59148C5.28527 9.59148 5.17939 9.30729 5.07351 8.49911L5.01174 8.08171H5.54998C6.02645 8.08171 6.08821 8.09947 6.08821 8.25933ZM6.67057 8.2238C6.6441 8.30373 6.61763 8.44583 6.6088 8.5524C6.6088 8.7389 6.59998 8.7389 6.52939 8.57016C6.40586 8.28597 6.43233 8.08171 6.58233 8.08171C6.67939 8.08171 6.70586 8.12611 6.67057 8.2238ZM7.49998 8.17052C7.49998 8.21492 7.44704 8.23269 7.37645 8.20604C7.22645 8.14388 7.13821 8.80995 7.27939 9.04086C7.34998 9.16519 7.37645 9.12078 7.41174 8.79219L7.45586 8.39254L7.61469 8.83659C7.6941 9.08526 7.86174 9.43162 7.97645 9.60036L8.19704 9.92007L7.8441 10.2664C7.45586 10.6483 7.36763 10.6128 7.27939 10.0355C7.2441 9.86679 7.19116 9.63588 7.13821 9.52043C7.0941 9.40498 7.0588 9.24512 7.0588 9.15631C7.0588 9.0675 6.99704 8.94316 6.92645 8.881C6.74998 8.73002 6.7588 8.47247 6.95292 8.26821C7.11174 8.09059 7.49998 8.01954 7.49998 8.17052ZM14.5059 8.41031C14.3735 9.16519 13.9412 10.1332 13.6323 10.3908C13.5264 10.4796 13.5 10.4707 13.5 10.3552C13.5 10.2753 13.447 10.2131 13.3941 10.2131C13.3147 10.2131 13.2794 10.0622 13.2882 9.72469C13.2882 9.15631 13.5 8.881 13.9323 8.881C14.1088 8.881 14.2323 8.81883 14.2941 8.71226C14.4264 8.45471 14.4 8.35702 14.2147 8.41031C14.1 8.43695 14.0117 8.39254 13.95 8.26821C13.8529 8.09059 13.8706 8.08171 14.2059 8.08171H14.5676L14.5059 8.41031ZM15.9264 8.49911C15.7853 9.45826 15.3617 10.4796 14.7882 11.2256L14.5235 11.5719L14.4529 11.2966C14.3823 11.0302 14.1176 10.8881 14.1176 11.119C14.1176 11.1723 14.047 11.1545 13.95 11.0657C13.7823 10.9147 13.7823 10.897 14.1176 10.4618C14.5235 9.92007 14.8059 9.21848 14.8764 8.56128L14.9382 8.08171H15.4588H15.9794L15.9264 8.49911ZM17.3823 8.25045C17.3823 8.62345 17.1176 9.76022 16.9059 10.3375C16.65 11.0124 16.2088 11.7762 15.7764 12.2824L15.4853 12.6199L15.15 12.2735L14.8059 11.9183L15.1412 11.492C15.7676 10.6661 16.3235 9.21848 16.3235 8.41919V8.08171H16.8529C17.3117 8.08171 17.3823 8.09947 17.3823 8.25045ZM8.36469 8.70338C8.47939 8.80995 8.61174 8.85435 8.69998 8.81883C8.80586 8.78331 8.83233 8.79219 8.78821 8.86324C8.75292 8.9254 8.75292 9.01421 8.78821 9.0675C8.82351 9.13855 8.90292 9.10302 9.0088 8.96093C9.09704 8.84547 9.17645 8.79219 9.17645 8.83659C9.17645 8.88988 9.02645 9.08526 8.83233 9.27176L8.49704 9.60924L8.31174 9.30729C8.02939 8.84547 7.92351 8.52576 8.05586 8.52576C8.11763 8.52576 8.2588 8.60569 8.36469 8.70338ZM10.147 9.61812C10.147 9.70693 10.1912 9.75134 10.2353 9.72469C10.2882 9.69805 10.3235 9.75134 10.3235 9.84903C10.3235 9.9556 10.2617 10.0355 10.1912 10.0355C10.0323 10.0355 10.0147 10.3552 10.1735 10.4174C10.2441 10.4529 10.2353 10.4707 10.1382 10.4707C9.91763 10.4796 9.23821 10.222 8.99998 10.0355L8.77939 9.86679L9.11469 9.52043L9.4588 9.16519L9.80292 9.31617C10.0235 9.40498 10.147 9.52043 10.147 9.61812ZM11.9735 10.151C12 10.1865 11.9029 10.2398 11.7441 10.2664C11.5941 10.302 11.4441 10.3641 11.4176 10.3996C11.347 10.5151 11.0294 10.4973 11.0294 10.3819C11.0294 10.3108 10.9323 10.302 10.7559 10.3375C10.5176 10.3819 10.4912 10.373 10.5882 10.2576C10.7117 10.1066 10.9941 10.0799 11.0647 10.2043C11.1176 10.2931 11.4706 10.2309 11.4706 10.1332C11.4706 10.0533 11.8941 10.0711 11.9735 10.151ZM9.0088 10.5062C9.58233 10.8082 9.66174 10.9592 9.42351 11.2522C9.37057 11.3233 9.38821 11.4298 9.48527 11.5808C9.57351 11.714 9.59998 11.8117 9.53821 11.8117C9.3441 11.8117 8.67351 11.5098 8.22351 11.2078L7.75586 10.897L8.08233 10.5595C8.26763 10.3641 8.42645 10.2131 8.43527 10.2131C8.43527 10.2131 8.69998 10.3464 9.0088 10.5062ZM5.08233 10.8792C5.23233 11.048 5.39116 11.1901 5.4441 11.1901C5.48821 11.1901 5.68233 11.3499 5.86763 11.5453L6.21174 11.9005L5.8588 12.2647L5.49704 12.6288L5.17939 12.238C4.67645 11.6163 4.2441 10.8526 4.29704 10.6572C4.36763 10.3908 4.75586 10.4973 5.08233 10.8792ZM13.9853 12.0782C13.7735 12.3179 13.5529 12.3179 13.6235 12.0782C13.65 11.9805 13.7029 11.8206 13.7294 11.7318C13.7647 11.6163 13.7206 11.5275 13.597 11.4654C13.4912 11.4032 13.4117 11.3144 13.4117 11.2522C13.4117 11.1989 13.5794 11.3144 13.7823 11.5187C14.1441 11.8828 14.1529 11.9005 13.9853 12.0782ZM9.73233 12.2824L10.3235 12.3801V12.8508V13.3215H9.98821C9.20292 13.3215 7.79998 12.7531 7.12057 12.1492L6.77645 11.8561L7.07645 11.8384C7.48233 11.8206 7.94116 11.714 7.94116 11.643C7.94116 11.6075 8.21468 11.714 8.54116 11.8739C8.86763 12.0426 9.40586 12.2203 9.73233 12.2824ZM7.89704 13.1528C8.56763 13.4814 9.55586 13.7567 10.0853 13.7655C10.3147 13.7655 10.3235 13.7744 10.3235 14.2895V14.8135L9.95292 14.7691C8.5941 14.627 7.01469 13.9787 6.17645 13.2416L5.77939 12.8952L6.12351 12.5311L6.46763 12.1758L6.82939 12.4867C7.03233 12.6643 7.5088 12.9574 7.89704 13.1528ZM11.4088 12.389C11.4882 12.46 11.5235 12.6021 11.497 12.6998C11.4617 12.833 11.5059 12.9307 11.6559 13.0373L11.8588 13.1794L11.647 13.2416C11.5235 13.2771 11.2588 13.3037 11.0559 13.3126L10.6764 13.3215V12.8419C10.6764 12.3801 10.6853 12.3535 10.9235 12.3179C11.0559 12.3002 11.1882 12.2735 11.2235 12.2647C11.2588 12.2647 11.3382 12.3179 11.4088 12.389ZM14.8588 12.6021L15.1941 12.9485L14.6382 13.3748C13.6323 14.1208 12.3088 14.6359 11.0559 14.778L10.6764 14.8135V14.2984V13.7922L11.1882 13.73C12.3264 13.5968 13.3588 13.1616 14.1617 12.4867C14.3117 12.3623 14.4441 12.2647 14.4706 12.2558C14.497 12.2558 14.6735 12.4156 14.8588 12.6021Z" fill="#069EDB"/>
<path d="M4.33233 1.34991C3.67939 1.59858 3.07939 2.21137 2.83233 2.88632C2.47939 3.82771 2.60292 3.86323 3.39704 3.06394C3.98821 2.46892 4.81762 1.47425 4.92351 1.2167C4.96762 1.11901 4.85292 1.14565 4.33233 1.34991Z" fill="#069EDB"/>
<path d="M16.0588 1.23446C16.0588 1.27886 16.0941 1.34103 16.1471 1.37655C16.1912 1.4032 16.4647 1.75844 16.7647 2.15808C17.0559 2.55773 17.5235 3.07283 17.8059 3.31261C18.2647 3.70338 18.3088 3.72114 18.3353 3.54352C18.3882 3.19716 17.7618 2.06039 17.3559 1.76732C16.8265 1.37656 16.0588 1.06572 16.0588 1.23446Z" fill="#069EDB"/>
<path d="M2.37351 2.46004C1.75586 3.01954 1.64116 3.34814 1.60586 4.63588C1.58821 5.26643 1.60586 5.77265 1.64116 5.77265C1.68527 5.77265 2.18821 5.31972 2.75292 4.7691C3.58233 3.96981 3.80292 3.70338 3.89116 3.39254C4.02351 2.93073 3.9441 2.82416 3.69704 3.14387C3.59998 3.26821 3.32645 3.49911 3.10586 3.65897C2.87645 3.80995 2.57645 4.04085 2.43527 4.16519C2.2588 4.32505 2.19704 4.35169 2.23233 4.24512C2.2588 4.16519 2.32939 3.84547 2.38233 3.53464C2.43527 3.2238 2.57645 2.79751 2.69998 2.58437C2.81468 2.37123 2.91174 2.18473 2.91174 2.16696C2.91174 2.05151 2.69116 2.17585 2.37351 2.46004Z" fill="#069EDB"/>
<path d="M18.2206 2.46892C18.3441 2.6643 18.5118 3.13499 18.6088 3.57904L18.7677 4.36057L18.5382 4.14743C18.4147 4.03197 18.1677 3.84547 18 3.73002C17.8324 3.61457 17.5412 3.38366 17.3647 3.20604C17.0471 2.91297 17.0294 2.90409 17.0294 3.09947C17.0294 3.48135 17.4794 4.14743 18.0441 4.60924C18.3529 4.85791 18.7412 5.22203 18.9177 5.41741C19.0941 5.61279 19.2529 5.77265 19.2706 5.77265C19.2882 5.77265 19.3324 5.373 19.3588 4.88455C19.4471 3.68561 19.2971 3.14387 18.7059 2.55773C18.1765 2.01599 17.8941 1.97158 18.2206 2.46892Z" fill="#069EDB"/>
<path d="M1.08528 3.96981C0.53822 4.9556 0.485279 5.99468 0.917632 7.34459C1.06763 7.84192 1.22646 8.27709 1.25293 8.31262C1.28822 8.33926 1.43822 8.10835 1.59704 7.8064C1.74704 7.49556 2.07351 6.97158 2.31175 6.63411C2.67351 6.14565 3.23822 4.91119 3.14116 4.82238C3.08822 4.7691 1.76469 6.11901 1.60587 6.38544L1.43822 6.66963L1.35881 5.8437C1.27057 4.79574 1.26175 4.28952 1.34116 3.9254C1.4294 3.54352 1.30587 3.56128 1.08528 3.96981Z" fill="#069EDB"/>
<path d="M19.65 3.99645C19.7294 4.46714 19.7294 4.54707 19.6323 5.76376C19.5706 6.51865 19.5441 6.65186 19.4647 6.49201C19.3412 6.2611 17.9118 4.76909 17.8588 4.82238C17.8147 4.8579 18.1147 5.75488 18.2559 6.03019C18.3088 6.12788 18.5647 6.50977 18.8294 6.87389C19.0853 7.23801 19.3765 7.71758 19.4647 7.93961C19.5618 8.16163 19.6588 8.34813 19.6941 8.34813C19.7294 8.34813 19.8882 7.95737 20.0471 7.4778C20.2765 6.78508 20.3294 6.46536 20.3294 5.86145C20.3382 5.00888 20.1441 4.27176 19.8 3.85435L19.5882 3.5968L19.65 3.99645Z" fill="#069EDB"/>
<path d="M0.176465 6.78508C0.114701 7.00711 0.0794064 7.48668 0.105877 7.87744C0.141171 8.76554 0.458818 9.45826 1.24411 10.3908L1.80882 11.0568L1.86176 10.4352C1.88823 10.0888 2.03823 9.43162 2.18823 8.95204C2.47058 8.09059 2.69117 6.94494 2.60294 6.85613C2.54999 6.79396 2.59411 6.72291 1.95882 7.80639C1.65882 8.32149 1.41176 8.80107 1.41176 8.881C1.41176 9.254 1.27058 9.08526 0.899995 8.28597C0.635289 7.69982 0.494112 7.25577 0.458818 6.90941C0.441171 6.62522 0.38823 6.39432 0.352936 6.39432C0.317642 6.39432 0.23823 6.57194 0.176465 6.78508Z" fill="#069EDB"/>
<path d="M20.5588 6.66962C20.5588 7.08703 20.3912 7.60213 19.9853 8.48135L19.6588 9.19183L19.5441 8.83659C19.4912 8.64121 19.2353 8.15275 18.9882 7.74423C18.7412 7.3357 18.5206 6.95382 18.5029 6.90053C18.4853 6.83836 18.4323 6.8206 18.397 6.85613C18.2912 6.9627 18.5029 8.0817 18.8117 9.04085C18.9617 9.51154 19.1117 10.1599 19.1382 10.4707L19.1912 11.0391L19.747 10.3819C20.4706 9.51154 20.8323 8.79218 20.8853 8.05506C20.947 7.36234 20.8676 6.74955 20.6912 6.51865C20.5764 6.35879 20.5676 6.37655 20.5588 6.66962Z" fill="#069EDB"/>
<path d="M2.30293 9.92895C2.16175 10.5773 2.10881 11.0657 2.13528 11.3943L2.1794 11.9005L1.50881 11.1812C0.776457 10.3908 0.379398 9.84902 0.299986 9.52931C0.264692 9.41386 0.202927 9.32505 0.149986 9.32505C0.0970448 9.32505 0.0793977 9.52043 0.123515 9.87567C0.202927 10.6394 0.591163 11.4476 1.16469 12.016C1.60587 12.46 3.07057 13.4547 3.15881 13.3659C3.18528 13.3481 3.13234 13.1616 3.0441 12.9485C2.9294 12.6643 2.87646 12.238 2.84999 11.2345C2.82352 9.99112 2.69116 8.96981 2.56763 8.96981C2.53234 8.96981 2.41763 9.40497 2.30293 9.92895Z" fill="#069EDB"/>
<path d="M18.2647 9.38721C18.2029 9.627 18.15 10.3908 18.1411 11.1012C18.1235 12.0693 18.0794 12.5044 17.9647 12.8597C17.8764 13.1172 17.8235 13.3481 17.8411 13.3659C17.8588 13.3837 18.1941 13.1972 18.6 12.9485C19.4382 12.4423 20.0735 11.8561 20.4088 11.2789C20.7794 10.6394 21.0617 9.32504 20.8235 9.32504C20.7794 9.32504 20.7353 9.37833 20.7353 9.44938C20.7353 9.66252 20.1088 10.5151 19.4382 11.2256L18.7941 11.9005L18.847 11.3854C18.8823 11.0213 18.847 10.6572 18.7147 10.0977C18.6088 9.66252 18.5294 9.23623 18.5294 9.13854C18.5294 8.81883 18.3706 8.9698 18.2647 9.38721Z" fill="#069EDB"/>
<path d="M3.12356 11.3233C3.15003 11.4032 3.22944 11.865 3.30885 12.3535C3.37944 12.8419 3.52062 13.4192 3.60885 13.6412C3.70591 13.8544 3.75885 14.032 3.7412 14.032C3.55591 14.032 1.87944 13.0639 1.42062 12.6998C1.12062 12.4512 0.847086 12.2558 0.829439 12.2824C0.811792 12.3002 0.917674 12.5577 1.05885 12.8597C1.3765 13.4814 2.0912 14.1918 2.76179 14.5382C3.1765 14.7425 5.10885 15.222 5.19709 15.1332C5.21473 15.1155 5.15297 15.0089 5.04709 14.8934C4.83532 14.6625 4.44709 13.8277 4.11179 12.8686C3.86473 12.1581 3.31767 11.1901 3.15885 11.1901C3.10591 11.1901 3.09709 11.2522 3.12356 11.3233Z" fill="#069EDB"/>
<path d="M17.5324 11.5186C17.25 11.9361 16.853 12.8153 16.5883 13.6146C16.4824 13.9432 16.2618 14.4227 16.0941 14.6714C15.9265 14.9201 15.803 15.1332 15.8118 15.151C15.8294 15.1599 16.2883 15.0799 16.8353 14.9645C18 14.7158 18.5559 14.4405 19.2353 13.7655C19.703 13.3037 20.2765 12.3357 20.1177 12.2735C20.0824 12.2558 19.9147 12.3712 19.7559 12.5222C19.2883 12.9574 18.7853 13.286 18.0265 13.6501C17.6471 13.8277 17.3118 13.9964 17.2677 14.0142C17.2324 14.032 17.2853 13.8544 17.3912 13.6234C17.5588 13.2238 17.8853 11.3144 17.7971 11.2256C17.7794 11.2078 17.6559 11.341 17.5324 11.5186Z" fill="#069EDB"/>
<path d="M4.67646 13.4991C4.67646 13.6856 5.30293 14.8313 5.56764 15.1421L5.84117 15.4529H5.46176C4.50882 15.4441 3.49411 15.2753 3.02646 15.0444C2.76176 14.9201 2.52352 14.8401 2.49705 14.8668C2.39999 14.9645 3.24705 15.7105 3.72352 15.9591C4.44705 16.3233 5.42646 16.3499 6.79411 16.0302C7.37646 15.8881 7.85293 15.746 7.85293 15.7016C7.85293 15.6661 7.79999 15.6306 7.74705 15.6306C7.38529 15.6306 6.62646 15.1155 5.77058 14.3073C4.86176 13.4458 4.67646 13.3037 4.67646 13.4991Z" fill="#069EDB"/>
<path d="M15.1853 14.3339C14.4088 15.0622 14.0912 15.3108 13.6764 15.4707C13.3853 15.5773 13.147 15.7016 13.147 15.7282C13.147 15.7638 13.5353 15.8792 14.0117 15.9947C14.6294 16.1545 15.1235 16.2078 15.7941 16.2078C16.6323 16.2078 16.7735 16.1812 17.2235 15.9591C17.7353 15.7105 18.6264 14.9112 18.4676 14.8579C18.4147 14.8401 18.1764 14.929 17.9206 15.0533C17.4706 15.2842 16.4735 15.4441 15.4941 15.4529H15.0617L15.2912 15.2753C15.4676 15.1332 16.3235 13.6412 16.3235 13.4636C16.3235 13.3037 16.0676 13.4991 15.1853 14.3339Z" fill="#069EDB"/>
<path d="M8.55882 15.7904C8.4353 15.8082 7.90588 16.0036 7.36765 16.2256C6.20294 16.714 5.47941 16.8028 4.75588 16.5719C4.50882 16.4831 4.28824 16.4387 4.27059 16.4565C4.2 16.5275 4.64118 16.865 5.11765 17.1137C5.54118 17.3268 5.7 17.3623 6.35294 17.3623C7.21765 17.3623 7.56177 17.2291 8.65588 16.5187C9.16765 16.1723 9.39706 16.0746 9.67059 16.0746H10.0147L9.55588 16.3321C8.97353 16.6519 8.32941 17.1314 8.00294 17.4778L7.75588 17.7442L8.01177 17.9307L8.27647 18.1172L8.55882 17.7886C8.95588 17.3446 9.67059 16.7229 10.1294 16.4565L10.5 16.2345L10.9147 16.4742C11.1353 16.6163 11.6471 17.0337 12.0353 17.4067L12.75 18.0995L12.9618 17.9307C13.0765 17.833 13.1471 17.7087 13.1206 17.6288C13.05 17.4512 12.0971 16.714 11.4882 16.3677L10.9853 16.0746H11.3294C11.6029 16.0746 11.8324 16.1723 12.3441 16.5187C13.4382 17.2291 13.7824 17.3623 14.6471 17.3623C15.2824 17.3623 15.4588 17.3268 15.8382 17.1226C16.3588 16.8472 16.7382 16.5542 16.6676 16.4831C16.6412 16.4565 16.4294 16.492 16.2 16.5719C15.5559 16.794 14.7706 16.7052 13.8088 16.3055C12.5382 15.7726 12.3794 15.746 10.4912 15.746C9.54706 15.7549 8.68235 15.7726 8.55882 15.7904Z" fill="#069EDB"/>
<path d="M39.4412 22.5666V25.7815L39.1765 25.4441C38.2853 24.3162 36.6088 23.73 34.8794 23.952C32.9912 24.1918 31.4823 25.3286 30.6617 27.1314C29.3029 30.1155 29.9382 34.2806 32.0294 36.1723C32.5765 36.6696 33.5294 37.167 34.2441 37.3446C34.9941 37.5222 36.4853 37.5133 37.1735 37.3357C38.1529 37.087 38.8765 36.6163 39.3617 35.9325L39.6176 35.5861V36.3943V37.2114H41.3382H43.0588V28.286V19.3606H41.25H39.4412V22.5666ZM37.8265 26.9361C38.9382 27.5044 39.5206 28.7922 39.5294 30.6661C39.5294 32.611 38.9206 33.9609 37.7912 34.5115C37.1294 34.8401 36.1765 34.8579 35.497 34.556C34.9853 34.325 34.35 33.7034 34.0765 33.1616C33.4235 31.8739 33.3706 29.7691 33.9617 28.3925C34.297 27.6199 35.0735 26.9272 35.8676 26.7229C36.3617 26.5897 37.35 26.6963 37.8265 26.9361Z" fill="#069EDB"/>
<path d="M2.11765 22.3357V24.2451H1.05882H0V25.4885V26.7318H1.05882H2.11765V30.4796C2.11765 32.5488 2.16176 34.5115 2.20588 34.8579C2.37353 36.0035 3 36.7407 4.08529 37.087C4.61471 37.2469 6.81177 37.3535 7.71177 37.2647L8.29412 37.1936V35.7904V34.3872L7.57059 34.4316C6.60882 34.4938 6.14118 34.3694 5.93824 33.9876C5.79706 33.73 5.77941 33.3481 5.75294 30.2131L5.72647 26.7318H7.01471H8.29412V25.4885V24.2451H7.01471H5.73529V22.3357V20.4263H3.92647H2.11765V22.3357Z" fill="#069EDB"/>
<path d="M15.9706 23.952C14.7794 24.1563 13.6235 24.9112 12.9176 25.9769L12.6176 26.421V25.3286V24.2451H10.897H9.17645V30.7282V37.2114H10.9853H12.7941V33.8544C12.7941 30.1865 12.847 29.6803 13.2882 28.8544C13.9147 27.6998 15.0706 27.1758 16.6941 27.3091L17.4706 27.3712V25.6838V23.9964L17.197 23.9432C16.9059 23.8899 16.3412 23.8899 15.9706 23.952Z" fill="#069EDB"/>
<path d="M22.2883 23.9876C19.7647 24.3339 18.2647 25.4529 17.7794 27.3268C17.7088 27.6021 17.6471 27.9485 17.6471 28.0817V28.3304H19.4559H21.2647V28.0817C21.2736 27.7087 21.5559 27.1581 21.9088 26.8472C22.3147 26.492 22.9677 26.341 23.8853 26.3943C25.0236 26.4565 25.5971 26.8828 25.7294 27.7531C25.8 28.2682 25.6853 28.579 25.3147 28.881C24.9353 29.183 24.2912 29.3517 22.7647 29.5293C20.4 29.8135 19.1118 30.2131 18.3177 30.9147C16.95 32.1226 16.8794 34.849 18.1677 36.2611C18.9177 37.0782 20.0559 37.4778 21.6441 37.4778C23.2324 37.4778 24.3971 37.1581 25.3853 36.4476C25.8883 36.0924 25.9412 36.0657 25.9412 36.2345C25.9412 36.341 25.9853 36.5986 26.0383 36.8206L26.1353 37.2114H27.9706H29.8059L29.6383 36.7584C29.3824 36.0746 29.2941 34.5826 29.2941 30.4441C29.2941 26.9361 29.2853 26.714 29.1177 26.2522C28.7383 25.2487 27.5647 24.4227 26.0736 24.1119C25.2265 23.9343 23.1353 23.8632 22.2883 23.9876ZM25.7383 32.0782C25.6853 33.0551 25.6588 33.2149 25.403 33.73C24.9265 34.7158 24.0618 35.1421 22.7118 35.0533C21.7765 35 21.3088 34.7602 21.0265 34.1918C20.6912 33.5258 20.8147 32.833 21.3618 32.3091C21.7765 31.9094 22.2441 31.7584 23.7441 31.5275C24.353 31.4298 25.05 31.2789 25.2883 31.1812C25.5265 31.0924 25.7383 31.0124 25.7559 31.0036C25.7736 30.9947 25.7647 31.4831 25.7383 32.0782Z" fill="#069EDB"/>
<path d="M48.8647 23.9787C47.6118 24.183 46.4824 24.7425 45.5118 25.6572C44.7618 26.3588 44.2147 27.238 43.8353 28.3304C43.553 29.1652 43.5441 29.1918 43.5441 30.7726C43.5441 32.3535 43.553 32.3801 43.8353 33.2149C44.25 34.3961 44.5765 34.929 45.3882 35.746C46.6059 36.9627 47.9647 37.4778 49.9941 37.4778C51.2471 37.4778 51.8647 37.3801 52.7647 37.0249C53.6294 36.6874 54.3 36.2078 54.8206 35.5595C55.2441 35.0355 55.8882 33.8366 55.9941 33.3659L56.0471 33.1261H54.4765L52.8971 33.135L52.6677 33.5169C52.2 34.2984 51.2647 34.7425 50.1177 34.7513C49.0853 34.7602 48.5382 34.5648 47.9471 33.9787C47.4618 33.4814 47.2412 32.984 47.1265 32.1048L47.0559 31.6163H51.6882H56.3206L56.2677 30.524C56.2059 29.183 55.9853 28.286 55.4471 27.1758C54.7235 25.7016 53.3382 24.5293 51.8382 24.1208C51.203 23.9432 49.5618 23.8721 48.8647 23.9787ZM51.2118 26.9449C51.9 27.2824 52.3677 27.984 52.6235 29.0586L52.6765 29.3073H49.8882H47.0912L47.1441 28.9076C47.2412 28.1972 47.7265 27.4512 48.3265 27.0693C49.1294 26.5808 50.3559 26.5275 51.2118 26.9449Z" fill="#069EDB"/>
<path d="M4.70296 39.3339C3.90002 39.5382 3.27355 40.1954 3.14119 40.9591C3.06178 41.4121 3.22943 42.0604 3.54708 42.5666C3.69708 42.7975 3.80296 43.0018 3.78531 43.0195C3.76767 43.0284 3.60884 43.135 3.44119 43.2504C2.94708 43.579 2.47061 44.0675 2.26767 44.4494C2.11767 44.7336 2.07355 44.9556 2.07355 45.5151C2.08237 46.1368 2.10884 46.2877 2.33825 46.7052C2.82355 47.5933 3.63531 48.0107 4.89708 47.9929C5.47061 47.9929 5.70884 47.9396 6.15002 47.7442C6.45002 47.6021 6.76767 47.4156 6.84708 47.3268C7.06767 47.0782 7.19119 47.1137 7.50002 47.5133L7.78237 47.8686H8.83237C9.4059 47.8686 9.88237 47.8419 9.88237 47.8153C9.88237 47.7798 9.59119 47.4156 9.24708 47.0071C8.18825 45.7638 8.25002 45.897 8.5059 45.4529C8.74414 45.0355 9.00002 44.2274 9.00002 43.8988C9.00002 43.7034 8.97355 43.6945 8.26767 43.6945H7.53531L7.40296 44.1119C7.33237 44.3517 7.24414 44.5382 7.20884 44.5382C7.16472 44.5382 6.93531 44.2984 6.7059 43.9964L6.27355 43.4636L6.7059 43.135C7.34119 42.6554 7.59708 42.2202 7.65002 41.5364C7.7559 40.2043 6.98825 39.3783 5.57649 39.2984C5.25002 39.2806 4.86178 39.2895 4.70296 39.3339ZM5.8059 40.6394C6.28237 40.9769 6.22943 41.6075 5.68237 42.0959L5.37355 42.3623L5.17061 42.1226C4.87061 41.7584 4.76472 41.5186 4.76472 41.1989C4.76472 40.6217 5.34708 40.3108 5.8059 40.6394ZM5.51472 45.0355L6.18531 45.8526L5.99119 46.0568C5.34708 46.7407 4.22649 46.6696 3.83825 45.9059C3.57355 45.4085 3.83825 44.7691 4.44708 44.3961C4.59708 44.3073 4.74708 44.2274 4.78237 44.2274C4.81767 44.2274 5.14414 44.5915 5.51472 45.0355Z" fill="#069EDB"/>
<path d="M16.6765 40.8171V42.2913L16.4029 42.0604C15.9618 41.6874 15.5471 41.5453 14.8412 41.5453C13.7382 41.5453 12.9618 42.0693 12.45 43.1616C12.2382 43.6057 12.2206 43.7478 12.2206 44.7158C12.2206 45.6128 12.2559 45.8615 12.4235 46.2789C12.8647 47.389 13.7206 47.984 14.8676 47.9929C15.6 48.0018 16.05 47.8597 16.4647 47.4956L16.7647 47.2291V47.5488V47.8686H17.6029H18.4412V43.6057V39.3428H17.5588H16.6765V40.8171ZM16.1294 43.206C16.5353 43.5702 16.6765 43.9876 16.6765 44.7691C16.6765 45.5417 16.5441 45.9503 16.2 46.3055C15.6706 46.8295 14.8941 46.794 14.3912 46.2256C13.7647 45.5062 13.7735 43.952 14.4088 43.2682C14.6647 42.984 14.8676 42.9041 15.3706 42.9041C15.7323 42.8952 15.8471 42.9396 16.1294 43.206Z" fill="#069EDB"/>
<path d="M37.2353 43.6057V47.8686H38.1176H39V43.6057V39.3428H38.1176H37.2353V43.6057Z" fill="#069EDB"/>
<path d="M76.5 40.7638V41.6519H75.9706H75.4412V42.2735V42.8952H75.9706H76.5V44.9467C76.5 47.2469 76.5353 47.389 77.1176 47.6909C77.5059 47.8863 78.3882 47.9929 78.9706 47.913L79.4118 47.8508V47.1758V46.492H78.9265C78.5823 46.492 78.4059 46.4476 78.3529 46.3588C78.3088 46.2877 78.2647 45.4796 78.2647 44.556V42.8952H78.8382H79.4118V42.2735V41.6519H78.8382H78.2647V40.7638V39.8757H77.3823H76.5V40.7638Z" fill="#069EDB"/>
<path d="M21.2824 41.5719C20.2765 41.7052 19.4382 42.3446 18.9794 43.3304C18.7765 43.7744 18.75 43.9343 18.75 44.8046C18.75 45.675 18.7765 45.8348 18.9794 46.27C19.2794 46.9183 19.65 47.3357 20.1794 47.6199C21.4147 48.286 23.1706 48.0995 23.9824 47.2114C24.3353 46.8206 24.5382 46.492 24.6529 46.1101C24.7147 45.9147 24.7059 45.9147 23.9735 45.9147C23.2412 45.9147 23.2147 45.9236 22.9235 46.2167C22.4294 46.714 21.7235 46.8117 21.0618 46.4742C20.7971 46.341 20.4794 45.7549 20.4706 45.3996V45.2043H22.6324H24.7941V44.6803C24.7941 44.3961 24.7147 43.9076 24.6176 43.5968C24.1588 42.1226 22.8794 41.3499 21.2824 41.5719ZM22.4118 43.0284C22.6676 43.1616 22.8529 43.4281 22.9765 43.8455L23.0382 44.0497H21.7588C20.3471 44.0497 20.3471 44.0497 20.6294 43.5258C20.9294 42.9574 21.8118 42.7176 22.4118 43.0284Z" fill="#069EDB"/>
<path d="M33.2471 41.5719C31.6235 41.8028 30.6353 43.1616 30.7235 45.0178C30.7853 46.3588 31.3412 47.2469 32.4265 47.7531C32.8765 47.9574 33.0706 47.9929 33.75 47.9929C34.7118 48.0018 35.3471 47.8064 35.8412 47.3535C36.1853 47.0426 36.5471 46.492 36.6618 46.1101C36.7147 45.9147 36.7059 45.9147 35.9735 45.9147C35.2412 45.9147 35.2147 45.9236 34.9235 46.2167C34.4118 46.7318 33.5735 46.8206 32.9647 46.421C32.7265 46.2611 32.4706 45.7549 32.4706 45.4352V45.2043H34.6324H36.7941V44.6803C36.7941 44.3961 36.7147 43.9076 36.6177 43.5968C36.1588 42.1048 34.8794 41.341 33.2471 41.5719ZM34.3677 43.0018C34.5971 43.1084 34.8706 43.4902 34.9853 43.8455L35.0382 44.0497H33.7588C32.7794 44.0497 32.4706 44.0231 32.4706 43.9343C32.4706 43.7211 32.7794 43.2416 33.0441 43.0728C33.3441 42.8686 34.0059 42.833 34.3677 43.0018Z" fill="#069EDB"/>
<path d="M42.0706 41.5631C41.4089 41.643 40.6853 42.0071 40.2794 42.4689C39.2118 43.6501 39.2118 45.897 40.2706 47.0515C41.4441 48.3393 43.8883 48.3481 45.0353 47.0693C45.6265 46.4032 45.75 46.0213 45.75 44.7957C45.75 43.7478 45.7412 43.7123 45.4412 43.1083C44.8412 41.9272 43.6324 41.3677 42.0706 41.5631ZM43.5441 43.2504C43.9324 43.6323 44.0559 44.0231 44.0559 44.8224C44.0471 45.9947 43.5265 46.6607 42.6 46.6607C42.0794 46.6607 41.7794 46.4565 41.4794 45.9059C41.1706 45.3641 41.1618 44.2806 41.453 43.6767C41.7441 43.0817 42.0883 42.8774 42.7324 42.9218C43.1647 42.9485 43.2794 42.9929 43.5441 43.2504Z" fill="#069EDB"/>
<path d="M49.2265 41.5719C48.7412 41.643 48.4853 41.7673 48.1588 42.0782L47.9118 42.3091V41.9805V41.6519H47.0735H46.2353V45.8259V50H47.1176H48V48.6057V47.2114L48.2471 47.4423C48.6971 47.8686 49.05 47.9929 49.8088 47.9929C50.4 47.9929 50.5853 47.9574 50.9647 47.7531C51.8559 47.2913 52.3765 46.3854 52.4647 45.1243C52.5529 43.9254 52.2088 42.8686 51.5118 42.2202C50.9118 41.6607 50.1 41.4298 49.2265 41.5719ZM49.9765 43.0728C50.4529 43.3659 50.6823 43.8899 50.6912 44.7158C50.6912 45.595 50.6294 45.8259 50.2853 46.2256C49.8088 46.7673 48.9176 46.8295 48.4676 46.341C48.0882 45.9147 47.9647 45.5417 47.9647 44.8046C47.9647 43.5613 48.4323 42.8952 49.3147 42.8952C49.5441 42.8952 49.8088 42.9663 49.9765 43.0728Z" fill="#069EDB"/>
<path d="M56.0029 41.5719C55.5529 41.643 55.2529 41.794 54.8647 42.167L54.6176 42.3979V42.0249V41.6519H53.7794H52.9412V44.7602V47.8686H53.8147H54.697L54.7235 45.7904C54.75 43.4547 54.7765 43.3748 55.4382 43.0462C55.7029 42.913 55.8088 42.9041 56.1088 42.984C56.7088 43.1439 56.7353 43.2682 56.7353 45.7371V47.8686H57.6088H58.4912L58.5176 45.7993C58.5441 44.032 58.5706 43.6945 58.7029 43.4547C58.897 43.0906 59.1529 42.9574 59.6382 42.9574C59.9647 42.9574 60.0706 43.0018 60.2823 43.2327L60.5294 43.5169V45.6927V47.8686H61.4206H62.3029L62.2765 45.3552L62.25 42.8508L62.0118 42.4334C61.6676 41.8472 61.05 41.5542 60.1588 41.5453C59.4265 41.5364 59.0382 41.6696 58.5618 42.0959L58.2353 42.3801L58.0147 42.1137C57.6441 41.6696 56.8059 41.4476 56.0029 41.5719Z" fill="#069EDB"/>
<path d="M65.2323 41.5631C63.4059 41.8295 62.2676 43.7478 62.7706 45.7371C63.15 47.2114 64.1559 47.9751 65.7353 47.9929C67.05 48.0018 67.8441 47.6021 68.3559 46.6696C68.5147 46.3766 68.6471 46.0835 68.6471 46.0213C68.6471 45.9414 68.4441 45.9147 67.9059 45.9147C67.1823 45.9147 67.1559 45.9236 66.8647 46.2167C66.3 46.7851 65.3823 46.8206 64.8441 46.3055C64.6147 46.0835 64.4118 45.6217 64.4118 45.3108C64.4118 45.2309 64.9059 45.2043 66.5735 45.2043C68.3823 45.2043 68.7529 45.1865 68.7882 45.0799C68.8853 44.8224 68.6382 43.6412 68.3735 43.0995C67.8088 41.9183 66.6618 41.3677 65.2323 41.5631ZM66.2912 42.9751C66.5471 43.0728 66.8471 43.4636 66.9265 43.8099L66.9882 44.0497H65.6912H64.4029L64.4559 43.8455C64.6853 43.0906 65.5323 42.6909 66.2912 42.9751Z" fill="#069EDB"/>
<path d="M72.3088 41.5631C71.8235 41.6341 71.3382 41.8917 71.0735 42.2025L70.8529 42.4689V42.0604V41.6519H70.0147H69.1765V44.7602V47.8686H70.05H70.9235L70.9588 45.8437C70.9853 44.1208 71.0117 43.7833 71.1441 43.5435C71.3647 43.1261 71.6823 42.9485 72.1941 42.9485C72.7147 42.9485 73.0235 43.206 73.147 43.7478C73.1912 43.9343 73.2353 44.9467 73.2353 45.9769V47.8686H74.1265H75.0176L74.9823 45.4885C74.9382 42.9751 74.9029 42.762 74.4882 42.1936C74.1176 41.6874 73.2176 41.4298 72.3088 41.5631Z" fill="#069EDB"/>
<path d="M24.7941 41.714C24.7941 41.7584 25.253 43.1528 25.8177 44.8313L26.85 47.8774L27.8294 47.8508L28.8088 47.8242L29.8412 44.7336L30.8735 41.643L29.9912 41.6696L29.1 41.6963L28.5 43.6323C28.1735 44.6892 27.8912 45.5861 27.8647 45.6039C27.8471 45.6305 27.5471 44.7513 27.2206 43.6501L26.6118 41.6519H25.703C25.2 41.6519 24.7941 41.6785 24.7941 41.714Z" fill="#069EDB"/>
</svg>
