<svg width="42" height="42" viewBox="0 0 42 42" fill="none" xmlns="http://www.w3.org/2000/svg">
<circle cx="21" cy="21" r="20.5" stroke="white" stroke-opacity="0.3"/>
<path d="M12.8333 14.0182C12.8333 14.0273 14.2196 15.7424 15.9139 17.8333C17.6082 19.9212 18.9944 21.6424 18.9944 21.6545C18.9944 21.6818 19.2062 21.4515 15.946 24.9697C14.4538 26.5788 13.2152 27.9212 13.1895 27.9485C13.1478 27.997 13.2216 28 14.3832 28H15.6187L17.5376 25.9333C18.5933 24.7939 19.6202 23.6909 19.8159 23.4788L20.1753 23.097L22.1616 25.5485L24.1447 27.997L26.6573 28C28.0371 28 29.1667 27.9909 29.1667 27.9818C29.1667 27.9697 23.1051 20.3909 22.7457 19.9545C22.7328 19.9364 23.8367 18.7182 25.4315 17.003C26.9204 15.397 28.1559 14.0636 28.1751 14.0394C28.2072 14.0061 28.0018 14 26.9654 14.003H25.7171L23.6474 16.2455L21.5776 18.4848L21.5038 18.4C21.4653 18.3545 20.6567 17.3455 19.7068 16.1606L17.9836 14.003L15.4101 14C13.9918 14 12.8333 14.0061 12.8333 14.0182ZM21.7381 20.9455C24.2089 24.0303 26.2369 26.5667 26.2402 26.5818C26.2466 26.597 25.9321 26.603 25.5374 26.6L24.825 26.5909L20.2748 20.9727C17.7686 17.8818 15.7214 15.3485 15.7214 15.3424C15.7214 15.3394 16.0647 15.3333 16.4851 15.3333L17.2456 15.3364L21.7381 20.9455Z" fill="white"/>
</svg>
