<svg width="42" height="42" viewBox="0 0 42 42" fill="none" xmlns="http://www.w3.org/2000/svg">
<circle cx="21" cy="21" r="20.5" stroke="white" stroke-opacity="0.3"/>
<path d="M17.1341 28H14.2315V18.653H17.1341V28ZM15.6811 17.378C14.753 17.378 14 16.609 14 15.681C14 15.2352 14.1771 14.8076 14.4924 14.4924C14.8076 14.1771 15.2352 14 15.6811 14C16.1269 14 16.5545 14.1771 16.8697 14.4924C17.185 14.8076 17.3621 15.2352 17.3621 15.681C17.3621 16.609 16.6091 17.378 15.6811 17.378ZM27.9975 28H25.1014V23.45C25.1014 22.3655 25.0794 20.975 23.5923 20.975C22.0833 20.975 21.8518 22.153 21.8518 23.372V28H18.9522V18.653H21.7358V19.928H21.7763C22.1638 19.1935 23.1103 18.4185 24.5224 18.4185C27.46 18.4185 28 20.353 28 22.8655V28H27.9975Z" fill="white"/>
</svg>
