<svg width="42" height="42" viewBox="0 0 42 42" fill="none" xmlns="http://www.w3.org/2000/svg">
<circle cx="21" cy="21" r="20.5" stroke="white" stroke-opacity="0.3"/>
<path d="M29.8667 17.1146C29.6333 16.3125 29.05 15.7396 28.2333 15.5104C26.8333 15.1667 20.8833 15.1667 20.8833 15.1667C20.8833 15.1667 15.05 15.1667 13.5333 15.5104C12.7167 15.7396 12.1333 16.3125 11.9 17.1146C11.6667 18.6042 11.6667 21.5834 11.6667 21.5834C11.6667 21.5834 11.6667 24.5625 12.0167 26.0521C12.25 26.8542 12.8333 27.4271 13.65 27.6563C15.05 28 21 28 21 28C21 28 26.8333 28 28.35 27.6563C29.1666 27.4271 29.75 26.8542 29.9833 26.0521C30.3333 24.5625 30.3333 21.5834 30.3333 21.5834C30.3333 21.5834 30.3333 18.6042 29.8667 17.1146ZM19.1333 24.3334V18.8334L24.0333 21.5834L19.1333 24.3334Z" fill="white"/>
</svg>
